<?xml version="1.0" encoding="UTF-8"?>
<svg version="1.1" xmlns="http://www.w3.org/2000/svg" width="500" height="500">
<path d="M0 0 C1.33908374 0.00056958 1.33908374 0.00056958 2.70521969 0.00115067 C3.73132903 -0.00084038 4.75743838 -0.00283143 5.81464195 -0.00488281 C6.95566791 -0.00196997 8.09669387 0.00094287 9.27229637 0.00394398 C10.47371519 0.00308955 11.67513401 0.00223513 12.91295946 0.00135481 C16.26278436 -0.0000134 19.61255155 0.00313416 22.9623695 0.00813287 C26.56906594 0.012434 30.17576045 0.01099119 33.78245872 0.0102306 C40.03630891 0.00970515 46.2901487 0.01285414 52.54399627 0.01846844 C61.5861133 0.0265806 70.62822527 0.02919837 79.67034554 0.03045643 C94.33905185 0.0326474 109.00775262 0.0393087 123.67645591 0.04875904 C137.92938532 0.057932 152.18231322 0.0650134 166.43524498 0.06926686 C167.31315895 0.06952958 168.19107293 0.0697923 169.09559036 0.07006299 C173.49963667 0.07136798 177.90368298 0.0726317 182.3077293 0.07387489 C218.86871175 0.0842489 255.4296879 0.10186843 291.9906649 0.1241985 C292.14456252 24.15881328 292.29259594 48.19345798 292.4336285 72.22815186 C292.49924787 83.38761168 292.56679361 94.54705367 292.63885826 105.70647389 C292.70165734 115.4318483 292.76085842 125.15723677 292.81572044 134.88265932 C292.84490143 140.03322811 292.87589663 145.18377171 292.91119903 150.33430248 C292.94436198 155.18098109 292.97271821 160.02766392 292.99737114 164.87439305 C293.00727442 166.65417962 293.01894125 168.43395738 293.03249496 170.2137199 C293.05072735 172.64235125 293.06263279 175.07093451 293.07295555 177.49961048 C293.07975934 178.20487171 293.08656313 178.91013294 293.09357309 179.63676572 C293.10186214 183.27145221 292.82037838 186.58684465 291.9906649 190.1241985 C291.82625458 191.74742418 291.68048313 193.37264311 291.5531649 194.9991985 C291.15123312 199.28647081 290.30097378 203.02948325 288.9906649 207.1241985 C288.85144615 207.7016985 288.7122274 208.2791985 288.5687899 208.8741985 C286.1045623 218.46470592 282.64843208 227.40919386 277.9906649 236.1241985 C277.19819545 237.7904836 276.40654069 239.45715639 275.6156649 241.1241985 C272.92270269 246.51012291 269.56404983 251.2910171 265.9906649 256.1241985 C265.19595787 257.21087818 265.19595787 257.21087818 264.38519615 258.319511 C261.38928892 262.37053209 258.36227752 266.37796225 254.9906649 270.1241985 C254.3306649 270.1241985 253.6706649 270.1241985 252.9906649 270.1241985 C252.9494149 270.6810735 252.9081649 271.2379485 252.8656649 271.8116985 C251.50089382 275.4185935 249.07986314 276.85458346 245.9906649 279.1241985 C245.3306649 279.1241985 244.6706649 279.1241985 243.9906649 279.1241985 C243.75476646 279.70427662 243.51886802 280.28435475 243.27582115 280.882011 C234.07447105 296.93543032 205.80118529 307.38204156 188.9906649 312.1241985 C187.7737899 312.4748235 186.5569149 312.8254485 185.3031649 313.1866985 C183.6634774 313.650761 183.6634774 313.650761 181.9906649 314.1241985 C180.8975399 314.4541985 179.8044149 314.7841985 178.6781649 315.1241985 C167.21374206 318.23319452 155.8997436 319.19590983 144.0531649 319.2491985 C143.33120933 319.25387135 142.60925377 319.2585442 141.86542076 319.26335865 C138.0946258 319.25190397 134.66586259 318.92159049 130.9906649 318.1241985 C128.86740748 317.95487544 126.74206548 317.8104439 124.6156649 317.6866985 C119.80697302 317.34012611 115.57655919 316.68340255 110.9906649 315.1241985 C109.9594149 314.8354485 108.9281649 314.5466985 107.8656649 314.2491985 C106.57362355 313.87549147 105.28202471 313.50025383 103.9906649 313.1241985 C103.01871177 312.84705006 102.04675865 312.56990162 101.0453524 312.28435475 C86.68593474 308.05800132 73.92294988 301.33316771 61.3031649 293.3741985 C60.67821129 292.98522389 60.05325767 292.59624928 59.40936607 292.19548756 C57.8996057 291.22690617 56.43950092 290.18174304 54.9906649 289.1241985 C54.9906649 288.4641985 54.9906649 287.8041985 54.9906649 287.1241985 C54.40800865 286.85865162 53.8253524 286.59310475 53.2250399 286.319511 C46.38889141 282.66241058 40.02680292 275.95058157 34.9906649 270.1241985 C34.9906649 269.4641985 34.9906649 268.8041985 34.9906649 268.1241985 C34.0006649 267.7941985 33.0106649 267.4641985 31.9906649 267.1241985 C31.9906649 266.1341985 31.9906649 265.1441985 31.9906649 264.1241985 C31.40671959 263.89474537 30.82277427 263.66529225 30.22113365 263.428886 C27.40838586 261.78360095 26.13732982 259.93081922 24.3031649 257.2491985 C23.70117271 256.38552662 23.09918052 255.52185475 22.47894615 254.632011 C21.14215369 252.37946307 20.43648596 250.68023926 19.9906649 248.1241985 C19.3306649 248.1241985 18.6706649 248.1241985 17.9906649 248.1241985 C16.82138033 245.78562935 15.65334068 243.44653409 14.4906649 241.10466725 C13.49058267 239.11752469 12.46963178 237.14074849 11.4281649 235.17497975 C8.42801361 229.43719041 6.17332423 224.01516436 4.64300865 217.72185475 C4.01199596 215.20913954 3.22899054 212.81546861 2.3656649 210.3741985 C1.08427184 206.64288814 0.49862156 203.0427213 -0.0093351 199.1241985 C-0.3599601 198.0310735 -0.7105851 196.9379485 -1.0718351 195.8116985 C-2.09953323 191.7694192 -2.12586068 188.30419571 -1.98199135 184.163261 C-1.77216815 182.12884485 -1.77216815 182.12884485 -3.0093351 181.1241985 C-3.10916075 178.79882994 -3.1437652 176.50311028 -3.13631874 174.17717701 C-3.13787873 173.44198873 -3.13943872 172.70680044 -3.14104599 171.94933373 C-3.14505866 169.46723746 -3.14186532 166.98520155 -3.13872963 164.50310475 C-3.14008356 162.73120293 -3.14186344 160.9593014 -3.14403969 159.1874004 C-3.14861509 154.36109314 -3.14682403 149.53480715 -3.1436606 144.70849949 C-3.14113755 139.66941223 -3.14347439 134.63032684 -3.14504677 129.59123951 C-3.14686863 121.1272876 -3.14446174 112.6633444 -3.13970619 104.19939381 C-3.13426354 94.39903938 -3.13602619 84.59870575 -3.1415326 74.79835182 C-3.14606327 66.40008226 -3.1467145 58.00181898 -3.14409393 49.60354859 C-3.1425309 44.58057206 -3.14233809 39.55760532 -3.14563042 34.5346294 C-3.14850847 29.81350052 -3.14653467 25.09239858 -3.14073616 20.37127262 C-3.13940821 18.6333555 -3.13980328 16.89543612 -3.14199883 15.15751988 C-3.14470896 12.79538877 -3.14133092 10.43334542 -3.13631874 8.07121998 C-3.13854946 7.37444425 -3.14078019 6.67766852 -3.14307851 5.95977837 C-3.11914602 0.19279673 -3.11914602 0.19279673 0 0 Z " fill="#EB7399" transform="translate(105.00933510065079,51.875801503658295)"/>
<path d="M0 0 C48.51 0 97.02 0 147 0 C147.29107747 46.19175533 147.29107747 46.19175533 147.40429688 65.51757812 C147.48258453 78.8724976 147.56195106 92.2274046 147.64819336 105.58227539 C147.71099244 115.3076498 147.77019352 125.03303828 147.82505554 134.75846082 C147.85423653 139.90902961 147.88523173 145.05957321 147.92053413 150.21010399 C147.95369708 155.05678259 147.98205331 159.90346542 148.00670624 164.75019455 C148.01660952 166.52998113 148.02827635 168.30975889 148.04183006 170.08952141 C148.06006245 172.51815275 148.07196789 174.94673601 148.08229065 177.37541199 C148.08909444 178.08067321 148.09589823 178.78593444 148.10290819 179.51256722 C148.11119724 183.14725372 147.82971348 186.46264616 147 190 C146.83558968 191.62322568 146.68981823 193.24844461 146.5625 194.875 C146.16056822 199.16227231 145.31030888 202.90528475 144 207 C143.86078125 207.5775 143.7215625 208.155 143.578125 208.75 C141.1138974 218.34050742 137.65776719 227.28499536 133 236 C132.20753055 237.66628511 131.41587579 239.3329579 130.625 241 C127.93203779 246.38592442 124.57338493 251.16681861 121 256 C120.47019531 256.72445313 119.94039062 257.44890625 119.39453125 258.1953125 C116.39862402 262.24633359 113.37161262 266.25376376 110 270 C109.34 270 108.68 270 108 270 C107.95875 270.556875 107.9175 271.11375 107.875 271.6875 C106.51022892 275.294395 104.08919824 276.73038496 101 279 C100.34 279 99.68 279 99 279 C98.76410156 279.58007812 98.52820313 280.16015625 98.28515625 280.7578125 C89.08380615 296.81123183 60.81052039 307.25784306 44 312 C42.783125 312.350625 41.56625 312.70125 40.3125 313.0625 C38.6728125 313.5265625 38.6728125 313.5265625 37 314 C35.906875 314.33 34.81375 314.66 33.6875 315 C32.470625 315.33 31.25375 315.66 30 316 C29.35289062 316.17660156 28.70578125 316.35320312 28.0390625 316.53515625 C18.63691222 318.76198132 9.98984457 318.50050777 0 319 C0 265.54 0 212.08 0 157 C-3.3 157 -6.6 157 -10 157 C-16.36293241 155.56553539 -24.26833148 152.66387958 -29 148 C-29 143.63204596 -28.77237852 143.25341007 -26 140.25 C-25.443125 139.63640625 -24.88625 139.0228125 -24.3125 138.390625 C-23.879375 137.93171875 -23.44625 137.4728125 -23 137 C-22.35933594 137.33773437 -21.71867188 137.67546875 -21.05859375 138.0234375 C-11.2804684 143.06551108 -2.00579715 146.11061925 9.0078125 143.20703125 C13.84268577 141.48781882 18.48695661 139.43948292 23 137 C24.17249353 138.45365269 25.33783816 139.91307419 26.5 141.375 C27.47453125 142.59316406 27.47453125 142.59316406 28.46875 143.8359375 C30 146 30 146 30 148 C54.75 148 79.5 148 105 148 C105 113.35 105 78.7 105 43 C70.35 43 35.7 43 0 43 C0 28.81 0 14.62 0 0 Z " fill="#39BCEC" transform="translate(250,52)"/>
<path d="M0 0 C0.88538956 0.00202423 1.77077911 0.00404846 2.68299866 0.00613403 C3.5868782 0.00517731 4.49075775 0.00422058 5.42202759 0.00323486 C7.33787607 0.00255293 9.25372685 0.00440812 11.16957092 0.00857544 C14.10834433 0.01391734 17.04696446 0.00863409 19.98573303 0.00222778 C21.84315525 0.00288868 23.70057736 0.00417009 25.55799866 0.00613403 C26.44136398 0.0041098 27.32472931 0.00208557 28.23486328 0 C34.45699676 0.02399246 34.45699676 0.02399246 36.68690491 1.13894653 C36.67530334 2.35453247 36.66370178 3.57011841 36.65174866 4.82254028 C36.64237213 6.40717417 36.63327178 7.99180971 36.62440491 9.57644653 C36.61183655 10.78010864 36.61183655 10.78010864 36.59901428 12.00808716 C36.5903906 14.05189874 36.63462341 16.09578555 36.68690491 18.13894653 C37.01690491 18.46894653 37.34690491 18.79894653 37.68690491 19.13894653 C37.718958 21.27276649 37.61895502 23.38994796 37.52674866 25.52175903 C37.73448272 28.91643764 38.7190153 31.88142558 39.68690491 35.13894653 C40.47463067 38.92396884 41.19013589 42.71860235 41.90565491 46.51785278 C42.62479985 49.85108958 43.54328234 52.93080682 44.68690491 56.13894653 C45.41976162 58.22098468 46.14897235 60.30431002 46.87440491 62.38894653 C47.23920959 63.42535278 47.60401428 64.46175903 47.97987366 65.52957153 C48.68690491 68.13894653 48.68690491 68.13894653 47.68690491 70.13894653 C48.34690491 70.13894653 49.00690491 70.13894653 49.68690491 70.13894653 C49.97823303 70.79379028 50.26956116 71.44863403 50.56971741 72.12332153 C55.21839443 82.47320622 59.98383962 92.45325938 66.36659241 101.86160278 C67.68690491 104.13894653 67.68690491 104.13894653 67.68690491 107.13894653 C68.34690491 107.46894653 69.00690491 107.79894653 69.68690491 108.13894653 C71.10216212 109.7502936 72.47158602 111.40224892 73.81190491 113.07644653 C74.53635803 113.97234497 75.26081116 114.86824341 76.00721741 115.79129028 C77.68690491 118.13894653 77.68690491 118.13894653 77.68690491 120.13894653 C78.34690491 120.13894653 79.00690491 120.13894653 79.68690491 120.13894653 C79.68690491 121.12894653 79.68690491 122.11894653 79.68690491 123.13894653 C80.24377991 123.36582153 80.80065491 123.59269653 81.37440491 123.82644653 C85.17490101 125.98348486 87.86557041 129.06271512 90.49940491 132.51394653 C93.02147305 135.54042831 95.83790793 137.90570938 98.88221741 140.39285278 C100.68690491 142.13894653 100.68690491 142.13894653 101.67909241 144.29129028 C102.01167053 144.90101685 102.34424866 145.51074341 102.68690491 146.13894653 C104.01176018 146.5045247 105.347338 146.83162033 106.68690491 147.13894653 C108.62699482 148.47258287 110.5184194 149.87805 112.37440491 151.32644653 C124.0462009 160.28552068 136.19609942 167.25510613 149.68690491 173.13894653 C150.37010803 173.43800903 151.05331116 173.73707153 151.75721741 174.04519653 C153.39558649 174.75444722 155.04089189 175.44762106 156.68690491 176.13894653 C157.45002991 176.46379028 158.21315491 176.78863403 158.99940491 177.12332153 C161.90730182 178.22223606 164.78948826 178.97803603 167.81190491 179.70144653 C170.82522466 180.42659705 173.74578929 181.15857466 176.68690491 182.13894653 C176.68690491 182.79894653 176.68690491 183.45894653 176.68690491 184.13894653 C177.26440491 183.93269653 177.84190491 183.72644653 178.43690491 183.51394653 C181.22421519 183.04939482 182.2672149 183.80710035 184.68690491 185.13894653 C184.54252991 185.98199341 184.39815491 186.82504028 184.24940491 187.69363403 C184.06377991 188.78933716 183.87815491 189.88504028 183.68690491 191.01394653 C183.50127991 192.10449341 183.31565491 193.19504028 183.12440491 194.31863403 C182.63580783 196.99266617 182.63580783 196.99266617 182.68690491 199.13894653 C183.89088928 199.27171997 185.09487366 199.40449341 186.33534241 199.54129028 C187.91088576 199.71947673 189.48640538 199.89787303 191.06190491 200.07644653 C192.25299866 200.20696411 192.25299866 200.20696411 193.46815491 200.34011841 C199.46034241 201.02566528 199.46034241 201.02566528 201.68690491 202.13894653 C204.9369829 202.20988957 208.17506619 202.13574177 211.42518616 202.07644653 C214.35227035 202.13253437 216.84069069 202.52329288 219.68690491 203.13894653 C225.05160242 203.47179273 230.29963568 203.02396111 235.62049866 202.35769653 C238.3122122 202.07275143 240.98217534 202.13894653 243.68690491 202.13894653 C245.35533025 201.81453049 247.02170972 201.47955464 248.68690491 201.13894653 C250.3522685 200.95972694 252.01915249 200.79437316 253.68690491 200.63894653 C257.07726116 200.32015184 260.36436563 199.9142057 263.68690491 199.13894653 C263.09664265 194.50096898 263.09664265 194.50096898 262.06190491 189.95144653 C261.60466155 187.74143696 262.00337702 186.26547774 262.68690491 184.13894653 C266.43690491 183.01394653 266.43690491 183.01394653 268.68690491 184.13894653 C268.68690491 183.47894653 268.68690491 182.81894653 268.68690491 182.13894653 C269.26698303 182.01777466 269.84706116 181.89660278 270.44471741 181.77175903 C274.09613058 180.98845258 277.58838479 180.17298076 281.12440491 178.95144653 C283.68690491 178.13894653 283.68690491 178.13894653 285.68690491 179.13894653 C286.01690491 178.47894653 286.34690491 177.81894653 286.68690491 177.13894653 C289.01170733 176.0659608 291.31216269 175.0828187 293.68690491 174.13894653 C294.61502991 173.72644653 295.54315491 173.31394653 296.49940491 172.88894653 C297.58221741 172.51769653 297.58221741 172.51769653 298.68690491 172.13894653 C299.34690491 172.46894653 300.00690491 172.79894653 300.68690491 173.13894653 C301.01690491 172.14894653 301.34690491 171.15894653 301.68690491 170.13894653 C303.80409241 168.99832153 303.80409241 168.99832153 306.56190491 167.88894653 C314.02223588 164.65870013 320.55529279 160.33843334 327.19862366 155.68972778 C327.78917542 155.27690552 328.37972717 154.86408325 328.98817444 154.43875122 C330.14532956 153.62582328 331.29879077 152.80760682 332.44813538 151.9836731 C336.47011823 149.13894653 336.47011823 149.13894653 338.68690491 149.13894653 C339.01690491 148.14894653 339.34690491 147.15894653 339.68690491 146.13894653 C341.35877991 144.70925903 341.35877991 144.70925903 343.43690491 143.26394653 C346.85337364 140.79582143 349.77614639 138.20290286 352.68690491 135.13894653 C354.64612199 133.08201288 356.63092045 131.10355391 358.68690491 129.13894653 C359.34690491 129.13894653 360.00690491 129.13894653 360.68690491 129.13894653 C360.77713928 128.56531372 360.86737366 127.99168091 360.96034241 127.40066528 C361.87413005 124.55613277 363.26552785 123.12029017 365.31190491 120.95144653 C370.6709841 115.10255902 375.80858214 109.1612689 379.59315491 102.14675903 C381.05772972 99.45821813 382.62831916 96.83651312 384.18690491 94.20144653 C386.8832705 89.59153116 389.37335943 84.95112113 391.68690491 80.13894653 C392.34690491 80.13894653 393.00690491 80.13894653 393.68690491 80.13894653 C393.35690491 79.14894653 393.02690491 78.15894653 392.68690491 77.13894653 C393.97603223 73.72275913 395.40922058 70.63646429 397.18690491 67.45144653 C399.04474456 63.3487173 400.01468465 59.22182343 401.03846741 54.84597778 C401.68690491 52.13894653 401.68690491 52.13894653 402.68690491 49.13894653 C403.34690491 49.13894653 404.00690491 49.13894653 404.68690491 49.13894653 C404.5039386 48.55451782 404.32097229 47.97008911 404.13246155 47.36795044 C403.54906261 44.44935739 404.36043298 42.19049976 405.13954163 39.36843872 C406.07676208 35.55100019 406.37936319 31.67029995 406.74940491 27.76394653 C407.55967276 19.39341082 407.55967276 19.39341082 408.68690491 17.13894653 C408.62502991 15.37550903 408.62502991 15.37550903 408.56190491 13.57644653 C408.49928772 10.18390899 409.06497207 7.55860465 410.19471741 4.36160278 C410.47202698 3.56633179 410.74933655 2.77106079 411.03504944 1.95169067 C411.25016174 1.35348511 411.46527405 0.75527954 411.68690491 0.13894653 C417.36520569 0.11429948 423.0434756 0.09611191 428.72181702 0.08401489 C430.65509076 0.07897397 432.58836067 0.07214135 434.5216217 0.06350708 C437.29417362 0.05143089 440.06667532 0.04571597 442.83924866 0.04129028 C444.14393349 0.03354836 444.14393349 0.03354836 445.47497559 0.02565002 C447.54596305 0.02545468 449.61684815 0.07686486 451.68690491 0.13894653 C454.31427784 2.76631946 452.87254215 10.36088942 452.87440491 13.88894653 C452.886651 15.06328247 452.89889709 16.23761841 452.91151428 17.44754028 C452.93050631 28.95670643 451.06903613 39.91251962 448.68690491 51.13894653 C448.02690491 51.13894653 447.36690491 51.13894653 446.68690491 51.13894653 C446.89315491 51.81957153 447.09940491 52.50019653 447.31190491 53.20144653 C447.79522559 56.98745857 446.87093714 59.52453236 445.68690491 63.13894653 C445.33627991 64.37644653 444.98565491 65.61394653 444.62440491 66.88894653 C444.01987829 68.98463879 443.37664243 71.06973397 442.68690491 73.13894653 C442.02690491 73.13894653 441.36690491 73.13894653 440.68690491 73.13894653 C440.88542053 73.70613403 441.08393616 74.27332153 441.28846741 74.85769653 C441.78628774 77.70796199 441.21333699 79.00207916 440.06190491 81.63894653 C439.68163147 82.52453247 439.30135803 83.41011841 438.90956116 84.32254028 C438.50608459 85.25195435 438.10260803 86.18136841 437.68690491 87.13894653 C437.15903381 88.48666138 437.15903381 88.48666138 436.62049866 89.86160278 C431.14491129 103.73181886 423.62860793 116.56158881 415.68690491 129.13894653 C415.15838928 130.08254028 414.62987366 131.02613403 414.08534241 131.99832153 C413.62385803 132.70472778 413.16237366 133.41113403 412.68690491 134.13894653 C412.02690491 134.13894653 411.36690491 134.13894653 410.68690491 134.13894653 C410.35690491 135.45894653 410.02690491 136.77894653 409.68690491 138.13894653 C409.02690491 138.13894653 408.36690491 138.13894653 407.68690491 138.13894653 C407.43424866 138.86082153 407.18159241 139.58269653 406.92127991 140.32644653 C404.2615405 146.38661226 399.48781242 151.90891644 394.31190491 156.01394653 C391.66693838 157.84529034 391.66693838 157.84529034 390.80409241 159.97488403 C389.3520256 162.78762883 387.42834145 164.66206478 385.18690491 166.88894653 C383.99581116 168.08777466 383.99581116 168.08777466 382.78065491 169.31082153 C380.68690491 171.13894653 380.68690491 171.13894653 378.68690491 171.13894653 C377.0181277 172.82700285 377.0181277 172.82700285 375.31190491 174.95144653 C372.98053492 177.77065826 370.7966937 180.17519544 367.68690491 182.13894653 C366.69690491 182.13894653 365.70690491 182.13894653 364.68690491 182.13894653 C364.42675598 182.74255005 364.16660706 183.34615356 363.89857483 183.9680481 C362.58641799 186.31898475 361.47712256 187.32617789 359.30018616 188.87332153 C358.61625793 189.36123169 357.93232971 189.84914185 357.22767639 190.35183716 C356.4923468 190.85908325 355.75701721 191.36632935 354.99940491 191.88894653 C354.24280579 192.41681763 353.48620667 192.94468872 352.7066803 193.48855591 C345.65845041 198.31826628 338.33068987 202.34474892 330.68690491 206.13894653 C329.90831116 206.53468872 329.12971741 206.93043091 328.32752991 207.33816528 C327.08728765 207.96572787 325.84289598 208.58520746 324.59315491 209.19363403 C323.08012233 209.94394937 321.58344779 210.72723542 320.09315491 211.52175903 C319.19596741 211.99355591 318.29877991 212.46535278 317.37440491 212.95144653 C316.55327209 213.39101685 315.73213928 213.83058716 314.88612366 214.28347778 C312.68690491 215.13894653 312.68690491 215.13894653 309.68690491 214.13894653 C309.35690491 214.79894653 309.02690491 215.45894653 308.68690491 216.13894653 C306.76112366 217.17410278 306.76112366 217.17410278 304.37440491 218.20144653 C303.59452209 218.5430481 302.81463928 218.88464966 302.01112366 219.23660278 C299.8911035 220.05966943 297.92749173 220.75197951 295.68690491 221.13894653 C295.02690491 220.80894653 294.36690491 220.47894653 293.68690491 220.13894653 C293.68690491 220.79894653 293.68690491 221.45894653 293.68690491 222.13894653 C291.85617574 222.59662882 290.02544657 223.05431112 288.19471741 223.51199341 C287.44963928 223.69826294 286.70456116 223.88453247 285.93690491 224.07644653 C283.82785543 224.6037089 281.71880595 225.13097127 279.60975647 225.65823364 C278.29402946 225.9871654 276.98814701 226.35745816 275.69374084 226.76223755 C273.68690491 227.13894653 273.68690491 227.13894653 269.68690491 226.13894653 C269.02690491 222.50894653 268.36690491 218.87894653 267.68690491 215.13894653 C263.27009988 213.66667819 258.93703207 214.56034241 254.49940491 215.70144653 C252.20126868 216.25616907 250.04754534 216.13894653 247.68690491 216.13894653 C245.09000534 216.56169763 243.03950144 216.96264827 240.68690491 218.13894653 C238.14244764 218.237851 235.62603219 218.27878324 233.08143616 218.27175903 C232.3240062 218.27271576 231.56657623 218.27367249 230.78619385 218.2746582 C229.17977312 218.27533947 227.57334966 218.27348888 225.9669342 218.26931763 C223.5265215 218.26400556 221.08629596 218.26924511 218.64588928 218.27566528 C217.08273784 218.27500377 215.51958651 218.27372109 213.95643616 218.27175903 C212.8716674 218.27479538 212.8716674 218.27479538 211.76498413 218.27789307 C206.52322329 218.25407605 201.49744593 217.74663108 196.37440491 216.63894653 C190.53163032 215.5519187 184.62680122 215.06469783 178.68690491 215.13894653 C178.56315491 215.84019653 178.43940491 216.54144653 178.31190491 217.26394653 C177.64852146 220.31551041 176.71478536 223.19235591 175.68690491 226.13894653 C170.65773997 227.36557213 167.56218449 226.76403973 162.68690491 225.13894653 C161.02172393 224.63402069 159.35495632 224.13430726 157.68690491 223.63894653 C156.83483459 223.38113403 155.98276428 223.12332153 155.10487366 222.85769653 C153.07825461 222.25527666 151.0399623 221.69231803 148.99940491 221.13894653 C145.4176951 220.05767565 142.11208496 218.64121849 138.68690491 217.13894653 C137.47260803 216.69421997 136.25831116 216.24949341 135.00721741 215.79129028 C130.5580741 214.13471073 126.28500336 212.17642498 121.99940491 210.13894653 C121.26657288 209.79605591 120.53374084 209.45316528 119.77870178 209.09988403 C115.94760243 207.28969823 112.28192639 205.39145218 108.68690491 203.13894653 C107.35779976 202.33502863 106.0283378 201.53170048 104.69862366 200.72879028 C103.25684221 199.84528768 101.81544395 198.96115951 100.37440491 198.07644653 C99.2635553 197.4064563 99.2635553 197.4064563 98.13026428 196.72293091 C97.43094788 196.2917395 96.73163147 195.8605481 96.01112366 195.41629028 C95.0533905 194.83222412 95.0533905 194.83222412 94.0763092 194.23635864 C93.61780579 193.87421265 93.15930237 193.51206665 92.68690491 193.13894653 C92.68690491 192.47894653 92.68690491 191.81894653 92.68690491 191.13894653 C91.96502991 190.87082153 91.24315491 190.60269653 90.49940491 190.32644653 C87.68924108 189.13993292 85.20273934 187.86409015 82.68690491 186.13894653 C82.68690491 185.47894653 82.68690491 184.81894653 82.68690491 184.13894653 C81.65049866 183.82377075 81.65049866 183.82377075 80.59315491 183.50222778 C76.78757872 181.71708519 74.19857473 179.21583278 71.18690491 176.32644653 C70.353526 175.54430786 70.353526 175.54430786 69.50331116 174.74636841 C66.16922112 171.60447885 62.91836185 168.38642723 59.68690491 165.13894653 C58.57895569 164.065802 58.57895569 164.065802 57.44862366 162.97097778 C56.42188538 161.97130981 56.42188538 161.97130981 55.37440491 160.95144653 C54.67702209 160.27726685 53.97963928 159.60308716 53.26112366 158.90847778 C51.68690491 157.13894653 51.68690491 157.13894653 51.68690491 155.13894653 C50.81292053 154.78316528 50.81292053 154.78316528 49.92127991 154.42019653 C47.21137654 152.86626593 45.82159689 151.11965222 43.93690491 148.63894653 C43.32331116 147.84488403 42.70971741 147.05082153 42.07752991 146.23269653 C40.68690491 144.13894653 40.68690491 144.13894653 40.68690491 142.13894653 C40.02690491 142.13894653 39.36690491 142.13894653 38.68690491 142.13894653 C37.43763733 140.61355591 37.43763733 140.61355591 36.04237366 138.48269653 C35.52997131 137.70668091 35.01756897 136.93066528 34.48963928 136.13113403 C33.69009827 134.89750122 33.69009827 134.89750122 32.87440491 133.63894653 C32.35297913 132.84746216 31.83155334 132.05597778 31.29432678 131.24050903 C26.45809563 123.87446408 21.74118442 116.49681066 17.62440491 108.70144653 C17.27788879 108.04676392 16.93137268 107.3920813 16.57435608 106.71755981 C9.30333936 92.86784095 1.67446307 76.80753004 -0.31309509 61.13894653 C0.01690491 60.47894653 0.34690491 59.81894653 0.68690491 59.13894653 C0.02690491 59.13894653 -0.63309509 59.13894653 -1.31309509 59.13894653 C-1.98775581 56.26561472 -2.65301849 53.39063171 -3.31309509 50.51394653 C-3.50387634 49.70570435 -3.69465759 48.89746216 -3.89122009 48.06472778 C-4.89876216 43.63873943 -5.41765065 39.70018276 -5.31309509 35.13894653 C-5.61424632 33.46616537 -5.94580368 31.79846029 -6.31309509 30.13894653 C-7.2720298 23.28433919 -7.41558803 16.42361388 -7.43809509 9.51394653 C-7.44498352 8.30412109 -7.44498352 8.30412109 -7.45201111 7.06985474 C-7.43298908 -0.04362169 -7.06338087 0.02734172 0 0 Z " fill="#85B43A" transform="translate(27.313095092773438,220.86105346679688)"/>
<path d="M0 0 C5.67830078 -0.02464705 11.35657069 -0.04283462 17.03491211 -0.05493164 C18.96818585 -0.05997256 20.90145576 -0.06680519 22.8347168 -0.07543945 C25.60726872 -0.08751565 28.37977041 -0.09323057 31.15234375 -0.09765625 C32.45702858 -0.10539818 32.45702858 -0.10539818 33.78807068 -0.11329651 C35.85905814 -0.11349185 37.92994324 -0.06208168 40 0 C42.62737293 2.62737293 41.18563725 10.22194288 41.1875 13.75 C41.19974609 14.92433594 41.21199219 16.09867188 41.22460938 17.30859375 C41.2436014 28.8177599 39.38213122 39.77357308 37 51 C36.34 51 35.68 51 35 51 C35.20625 51.680625 35.4125 52.36125 35.625 53.0625 C36.10832068 56.84851203 35.18403223 59.38558582 34 63 C33.649375 64.2375 33.29875 65.475 32.9375 66.75 C32.33297339 68.84569226 31.68973752 70.93078744 31 73 C30.34 73 29.68 73 29 73 C29.29777344 73.85078125 29.29777344 73.85078125 29.6015625 74.71875 C30.09938284 77.56901546 29.52643209 78.86313262 28.375 81.5 C27.99472656 82.38558594 27.61445313 83.27117187 27.22265625 84.18359375 C26.61744141 85.57771484 26.61744141 85.57771484 26 87 C25.64808594 87.89847656 25.29617188 88.79695313 24.93359375 89.72265625 C19.45800638 103.59287233 11.94170302 116.42264228 4 129 C3.47148437 129.94359375 2.94296875 130.8871875 2.3984375 131.859375 C1.93695313 132.56578125 1.47546875 133.2721875 1 134 C0.34 134 -0.32 134 -1 134 C-1.33 135.32 -1.66 136.64 -2 138 C-2.66 138 -3.32 138 -4 138 C-4.25265625 138.721875 -4.5053125 139.44375 -4.765625 140.1875 C-7.4253644 146.24766573 -12.19909249 151.76996991 -17.375 155.875 C-20.01996653 157.70634381 -20.01996653 157.70634381 -20.8828125 159.8359375 C-22.33487931 162.6486823 -24.25856346 164.52311824 -26.5 166.75 C-27.69109375 167.94882812 -27.69109375 167.94882812 -28.90625 169.171875 C-31 171 -31 171 -33 171 C-34.66877721 172.68805632 -34.66877721 172.68805632 -36.375 174.8125 C-38.70636999 177.63171173 -40.89021121 180.03624891 -44 182 C-44.99 182 -45.98 182 -47 182 C-47.39022339 182.90540527 -47.39022339 182.90540527 -47.78833008 183.82910156 C-49.10048692 186.18003821 -50.20978235 187.18723136 -52.38671875 188.734375 C-53.41261108 189.46624023 -53.41261108 189.46624023 -54.45922852 190.21289062 C-55.19455811 190.72013672 -55.9298877 191.22738281 -56.6875 191.75 C-57.44409912 192.27787109 -58.20069824 192.80574219 -58.98022461 193.34960938 C-66.0284545 198.17931974 -73.35621503 202.20580239 -81 206 C-81.77859375 206.39574219 -82.5571875 206.79148437 -83.359375 207.19921875 C-84.59961726 207.82678133 -85.84400892 208.44626092 -87.09375 209.0546875 C-88.60678257 209.80500283 -90.10345711 210.58828888 -91.59375 211.3828125 C-92.93953125 212.09050781 -92.93953125 212.09050781 -94.3125 212.8125 C-95.54419922 213.47185547 -95.54419922 213.47185547 -96.80078125 214.14453125 C-99 215 -99 215 -102 214 C-102.33 214.66 -102.66 215.32 -103 216 C-104.92578125 217.03515625 -104.92578125 217.03515625 -107.3125 218.0625 C-108.09238281 218.40410156 -108.87226563 218.74570312 -109.67578125 219.09765625 C-111.7958014 219.9207229 -113.75941317 220.61303298 -116 221 C-116.66 220.67 -117.32 220.34 -118 220 C-118 220.66 -118 221.32 -118 222 C-119.83072917 222.45768229 -121.66145833 222.91536458 -123.4921875 223.37304688 C-124.23726563 223.55931641 -124.98234375 223.74558594 -125.75 223.9375 C-127.85904948 224.46476237 -129.96809896 224.99202474 -132.07714844 225.51928711 C-133.42399001 225.8559975 -134.76556824 226.21414931 -136.10253906 226.58813477 C-138.36735756 227.07973909 -139.81689259 226.7017131 -142 226 C-142.13277344 225.22914063 -142.26554687 224.45828125 -142.40234375 223.6640625 C-142.57894531 222.66117188 -142.75554687 221.65828125 -142.9375 220.625 C-143.11152344 219.62726563 -143.28554688 218.62953125 -143.46484375 217.6015625 C-143.87712062 215.03090344 -143.87712062 215.03090344 -145 213 C-145.154636 211.27323132 -145.2747343 209.54327704 -145.375 207.8125 C-145.76580506 202.95895329 -147.04929514 199.47036531 -149 195 C-149.52463649 191.67566782 -149.80402912 188.35853546 -150 185 C-147.625 183.9375 -147.625 183.9375 -145 183 C-144.34 183.33 -143.68 183.66 -143 184 C-143 183.34 -143 182.68 -143 182 C-142.41992188 181.87882813 -141.83984375 181.75765625 -141.2421875 181.6328125 C-137.59077432 180.84950604 -134.09852012 180.03403422 -130.5625 178.8125 C-128 178 -128 178 -126 179 C-125.67 178.34 -125.34 177.68 -125 177 C-122.67519757 175.92701426 -120.37474222 174.94387217 -118 174 C-116.6078125 173.38125 -116.6078125 173.38125 -115.1875 172.75 C-114.465625 172.5025 -113.74375 172.255 -113 172 C-112.34 172.33 -111.68 172.66 -111 173 C-110.67 172.01 -110.34 171.02 -110 170 C-107.8828125 168.859375 -107.8828125 168.859375 -105.125 167.75 C-97.66466903 164.5197536 -91.13161212 160.19948681 -84.48828125 155.55078125 C-83.89772949 155.13795898 -83.30717773 154.72513672 -82.69873047 154.29980469 C-81.54157535 153.48687675 -80.38811414 152.66866029 -79.23876953 151.84472656 C-75.21678668 149 -75.21678668 149 -73 149 C-72.67 148.01 -72.34 147.02 -72 146 C-70.328125 144.5703125 -70.328125 144.5703125 -68.25 143.125 C-64.83353126 140.6568749 -61.91075851 138.06395633 -59 135 C-57.04078291 132.94306635 -55.05598446 130.96460737 -53 129 C-52.34 129 -51.68 129 -51 129 C-50.90976562 128.42636719 -50.81953125 127.85273438 -50.7265625 127.26171875 C-49.81277485 124.41718623 -48.42137705 122.98134363 -46.375 120.8125 C-41.0159208 114.96361249 -35.87832277 109.02232237 -32.09375 102.0078125 C-30.62917519 99.31927159 -29.05858575 96.69756659 -27.5 94.0625 C-24.8036344 89.45258462 -22.31354548 84.81217459 -20 80 C-19.34 80 -18.68 80 -18 80 C-18.33 79.01 -18.66 78.02 -19 77 C-17.71087268 73.58381259 -16.27768433 70.49751776 -14.5 67.3125 C-12.64216035 63.20977077 -11.67222025 59.08287689 -10.6484375 54.70703125 C-10 52 -10 52 -9 49 C-8.34 49 -7.68 49 -7 49 C-7.18296631 48.41557129 -7.36593262 47.83114258 -7.55444336 47.22900391 C-8.1378423 44.31041086 -7.32647193 42.05155323 -6.54736328 39.22949219 C-5.61014283 35.41205366 -5.30754172 31.53135342 -4.9375 27.625 C-4.12723214 19.25446429 -4.12723214 19.25446429 -3 17 C-3.04125 15.824375 -3.0825 14.64875 -3.125 13.4375 C-3.18761719 10.04496246 -2.62193284 7.41965811 -1.4921875 4.22265625 C-1.21487793 3.42738525 -0.93756836 2.63211426 -0.65185547 1.81274414 C-0.43674316 1.21453857 -0.22163086 0.61633301 0 0 Z " fill="#FED304" transform="translate(439,221)"/>
<path d="M0 0 C0.64066406 0.33773437 1.28132812 0.67546875 1.94140625 1.0234375 C11.7195316 6.06551108 20.99420285 9.11061925 32.0078125 6.20703125 C36.84268577 4.48781882 41.48695661 2.43948292 46 0 C47.17249353 1.45365269 48.33783816 2.91307419 49.5 4.375 C50.1496875 5.18710938 50.799375 5.99921875 51.46875 6.8359375 C53 9 53 9 53 11 C77.75 11 102.5 11 128 11 C128 51.93308997 124.57516736 80.36986032 97.0625 109.3125 C75.90755913 129.51568484 51.76888131 137.30771286 23 139 C23 99.73 23 60.46 23 20 C19.7 20 16.4 20 13 20 C6.63706759 18.56553539 -1.26833148 15.66387958 -6 11 C-6 6.63204596 -5.77237852 6.25341007 -3 3.25 C-2.443125 2.63640625 -1.88625 2.0228125 -1.3125 1.390625 C-0.6628125 0.70226562 -0.6628125 0.70226562 0 0 Z " fill="#567FAA" transform="translate(227,189)"/>
<path d="M0 0 C9.79751044 -0.16313155 19.59469095 -0.28704135 29.39328957 -0.3626852 C33.94465172 -0.39901516 38.49507594 -0.44818667 43.04589844 -0.52807617 C47.44859223 -0.60487001 51.85039156 -0.6461419 56.25370407 -0.6641407 C57.92251011 -0.67694495 59.59127445 -0.70194466 61.25969315 -0.7401104 C71.43338508 -0.96330306 78.44364598 -0.29382065 87.21054077 5.29747009 C92.46456566 7.86803319 92.46456566 7.86803319 105 9 C105 48.27 105 87.54 105 128 C79.88313209 128 55.99790105 119.73092463 37 103 C36.18144531 102.32453125 35.36289063 101.6490625 34.51953125 100.953125 C20.59636002 89.12382603 10.97260054 73.63433523 5.125 56.4375 C4.83858643 55.59960938 4.55217285 54.76171875 4.25708008 53.8984375 C0.20075207 41.26953297 -0.27710049 28.80975453 -0.125 15.6875 C-0.11493778 14.15690698 -0.10581773 12.62630746 -0.09765625 11.09570312 C-0.07592788 7.3969973 -0.04158181 3.69854231 0 0 Z " fill="#FED305" transform="translate(145,200)"/>
<path d="M0 0 C34.65 0 69.3 0 105 0 C105 34.65 105 69.3 105 105 C86.623125 105.2784375 86.623125 105.2784375 67.875 105.5625 C62.08364502 105.68540405 62.08364502 105.68540405 56.17529297 105.81079102 C51.44165039 105.85144043 51.44165039 105.85144043 49.22195435 105.85899353 C47.67948002 105.87276845 46.13709969 105.90433255 44.59524536 105.95018005 C31.4579816 106.32111632 31.4579816 106.32111632 27.72271729 102.93649292 C26.12548828 100.44506836 26.12548828 100.44506836 25.00808716 97.93785095 C24.6754184 97.29836014 24.34274963 96.65886932 24 96 C19.8052522 96 16.96165714 97.90963046 13.27734375 99.80859375 C10 101 10 101 0 102 C0 68.34 0 34.68 0 0 Z " fill="#A1C75A" transform="translate(250,95)"/>
<path d="M0 0 C34.65 0 69.3 0 105 0 C105 33.66 105 67.32 105 102 C93.75 100.875 93.75 100.875 90.125 99.0625 C89.07699219 98.55396484 89.07699219 98.55396484 88.0078125 98.03515625 C87.34523438 97.69355469 86.68265625 97.35195312 86 97 C85.25492187 96.62746094 84.50984375 96.25492187 83.7421875 95.87109375 C83.16726562 95.58363281 82.59234375 95.29617187 82 95 C80.99106869 96.09601169 79.99311775 97.20213918 79 98.3125 C78.443125 98.92738281 77.88625 99.54226562 77.3125 100.17578125 C75.70798502 102.03131335 75.70798502 102.03131335 76 105 C50.92 105 25.84 105 0 105 C0 70.35 0 35.7 0 0 Z " fill="#F3A8A7" transform="translate(145,95)"/>
<path d="M0 0 C1.17079102 0.13728516 1.17079102 0.13728516 2.36523438 0.27734375 C8.16282143 0.98766071 8.16282143 0.98766071 10.4375 2.125 C13.68757799 2.19594304 16.92566129 2.12179523 20.17578125 2.0625 C23.10286544 2.11858784 25.59128579 2.50934634 28.4375 3.125 C33.80219751 3.4578462 39.05023078 3.01001458 44.37109375 2.34375 C47.06280729 2.0588049 49.73277043 2.125 52.4375 2.125 C54.10592534 1.80058396 55.77230481 1.46560811 57.4375 1.125 C59.9680782 0.85666789 62.49983317 0.6250144 65.03515625 0.40625 C67.41391226 0.19098149 67.41391226 0.19098149 69.55859375 -0.46875 C71.4375 -0.875 71.4375 -0.875 74.4375 0.125 C76.08799717 4.55528188 76.66723141 8.41550618 76.4375 13.125 C72.57112155 14.56365245 69.54372421 15.23305853 65.4375 15.125 C64.7775 15.29 64.1175 15.455 63.4375 15.625 C61.05317544 16.22108114 58.89135625 16.125 56.4375 16.125 C53.84060043 16.54775109 51.79009654 16.94870173 49.4375 18.125 C46.89304273 18.22390446 44.37662728 18.2648367 41.83203125 18.2578125 C41.07460129 18.25876923 40.31717133 18.25972595 39.53678894 18.26071167 C37.93036822 18.26139294 36.32394475 18.25954235 34.7175293 18.25537109 C32.27711659 18.25005902 29.83689106 18.25529858 27.39648438 18.26171875 C25.83333293 18.26105723 24.2701816 18.25977456 22.70703125 18.2578125 C21.98385208 18.25983673 21.26067291 18.26186096 20.51557922 18.26394653 C15.22434901 18.23990474 10.16960309 17.67839249 4.98828125 16.62890625 C1.55439765 15.95054333 -1.90535109 15.51073216 -5.375 15.0625 C-6.06787109 14.97162109 -6.76074219 14.88074219 -7.47460938 14.78710938 C-9.17037692 14.56490535 -10.86641201 14.34474473 -12.5625 14.125 C-13.4442946 10.57262746 -13.60406034 7.94901489 -12.8125 4.375 C-12.65265625 3.59640625 -12.4928125 2.8178125 -12.328125 2.015625 C-12.07546875 1.39171875 -11.8228125 0.7678125 -11.5625 0.125 C-7.56922495 -1.20609168 -4.08734628 -0.52236625 0 0 Z " fill="#3962AC" transform="translate(218.5625,420.875)"/>
<path d="M0 0 C0.64066406 0.33773437 1.28132812 0.67546875 1.94140625 1.0234375 C11.7195316 6.06551108 20.99420285 9.11061925 32.0078125 6.20703125 C36.84268577 4.48781882 41.48695661 2.43948292 46 0 C48.31 2.97 50.62 5.94 53 9 C47.18035364 15.54710215 39.55399842 19.35479873 30.74072266 20.22241211 C20.66037759 20.69674529 11.11654061 20.8319229 2 16 C0.79537109 15.38705078 0.79537109 15.38705078 -0.43359375 14.76171875 C-4.48387598 12.49440305 -4.48387598 12.49440305 -6 11 C-6 6.63204596 -5.77237852 6.25341007 -3 3.25 C-2.443125 2.63640625 -1.88625 2.0228125 -1.3125 1.390625 C-0.6628125 0.70226562 -0.6628125 0.70226562 0 0 Z " fill="#121311" transform="translate(227,189)"/>
<path d="M0 0 C-1.99146684 1.99146684 -3.21899622 2.60348481 -5.75 3.6875 C-11.65755878 6.64127939 -14.91770081 10.12283197 -17.2578125 16.34375 C-18.25109996 19.53894042 -19.13370828 22.76806552 -20 26 C-27.26 26 -34.52 26 -42 26 C-42 17.58602857 -39.79115241 11.54035634 -34.359375 5.03515625 C-32.65342548 3.46871195 -30.9651574 2.22366502 -29 1 C-28.34386719 0.59007812 -27.68773437 0.18015625 -27.01171875 -0.2421875 C-18.53932086 -4.73395238 -8.34699754 -4.65878933 0 0 Z " fill="#FDFCFC" transform="translate(219,150)"/>
<path d="M0 0 C-2.00668875 2.00668875 -3.19230068 2.56424873 -5.75 3.625 C-12.86222717 7.09721254 -16.41444175 13.78765331 -19 21 C-19.33 22.65 -19.66 24.3 -20 26 C-27.26 26 -34.52 26 -42 26 C-40.99021761 16.91195849 -39.60886876 9.95749046 -32.75 3.625 C-23.03437908 -3.71383812 -11.03861731 -6.16108873 0 0 Z " fill="#FCFDFB" transform="translate(307,150)"/>
<path d="M0 0 C6.70674629 4.47116419 11.12065421 11.14091762 13 19 C13 20.98 13 22.96 13 25 C1.45 25 -10.1 25 -22 25 C-22 17.1416992 -20.58731365 11.9795484 -15.28515625 6.09765625 C-10.87643724 2.15199744 -6.1377011 -1.04790019 0 0 Z " fill="#121412" transform="translate(310,151)"/>
<path d="M0 0 C5.74770228 4.02446193 9.51594869 9.54146659 12 16 C12.495 20.455 12.495 20.455 13 25 C1.45 25 -10.1 25 -22 25 C-22 16.79104841 -21.64533677 12.87364596 -16.12890625 7.01171875 C-11.20372021 2.51480976 -6.92203377 -0.67355119 0 0 Z " fill="#131312" transform="translate(222,151)"/>
<path d="" fill="#FFAF00" transform="translate(0,0)"/>
<path d="" fill="#AAAA55" transform="translate(0,0)"/>
<path d="" fill="#FFFF00" transform="translate(0,0)"/>
<path d="" fill="#33B2FF" transform="translate(0,0)"/>
<path d="" fill="#FF55AA" transform="translate(0,0)"/>
</svg>
