<?xml version="1.0" encoding="UTF-8"?>
<svg version="1.1" xmlns="http://www.w3.org/2000/svg" width="500" height="500">
<path d="M0 0 C1.81112778 -0.00287018 1.81112778 -0.00287018 3.65884399 -0.00579834 C6.19151012 -0.00714834 8.72418345 -0.00353562 11.25683594 0.00488281 C15.08544833 0.01557998 18.91358957 0.00495604 22.7421875 -0.0078125 C38.23237715 -0.017382 53.23531608 0.24710666 68.2890625 4.265625 C69.54847656 4.595625 70.80789063 4.925625 72.10546875 5.265625 C75.65202145 6.24503977 79.19056488 7.24881817 82.7265625 8.265625 C83.93892578 8.60013672 83.93892578 8.60013672 85.17578125 8.94140625 C95.54345115 11.89067361 105.16051604 16.35960974 114.7265625 21.265625 C117.26574734 22.54143414 119.80873708 23.80959096 122.3515625 25.078125 C123.57297925 25.6886769 124.79433867 26.29934351 126.015625 26.91015625 C126.91023438 27.35746094 127.80484375 27.80476563 128.7265625 28.265625 C128.7265625 28.925625 128.7265625 29.585625 128.7265625 30.265625 C129.40332031 30.33652344 130.08007812 30.40742187 130.77734375 30.48046875 C134.67019726 31.51684432 137.63916563 33.56971885 140.9140625 35.828125 C141.57680176 36.27849121 142.23954102 36.72885742 142.92236328 37.19287109 C152.46091827 43.74411461 161.53704713 51.07610963 169.7265625 59.265625 C170.84793182 60.20746475 171.97333853 61.14450735 173.1015625 62.078125 C176.04086841 64.58017879 178.36826023 67.19983205 180.7265625 70.265625 C181.8403125 71.379375 181.8403125 71.379375 182.9765625 72.515625 C185.34913643 74.88819893 187.64874232 77.29138741 189.9140625 79.765625 C190.92533203 80.86390625 190.92533203 80.86390625 191.95703125 81.984375 C193.78090618 84.33568395 194.76462712 86.46367991 195.7265625 89.265625 C196.3865625 89.265625 197.0465625 89.265625 197.7265625 89.265625 C199.1015625 91.109375 199.1015625 91.109375 200.7265625 93.765625 C201.34015625 94.75949219 201.95375 95.75335938 202.5859375 96.77734375 C202.92431641 97.33083496 203.26269531 97.88432617 203.61132812 98.45458984 C204.82711121 100.4289066 206.06393743 102.38893891 207.3046875 104.34765625 C208.1954102 105.75775079 209.08603576 107.1679067 209.9765625 108.578125 C210.40066406 109.24714844 210.82476562 109.91617188 211.26171875 110.60546875 C213.64505764 114.40367867 215.77764632 118.22039563 217.7265625 122.265625 C218.23316406 123.255625 218.73976563 124.245625 219.26171875 125.265625 C220.01775391 126.750625 220.01775391 126.750625 220.7890625 128.265625 C221.54896484 129.750625 221.54896484 129.750625 222.32421875 131.265625 C223.70752456 134.2248976 224.72935862 137.15815565 225.7265625 140.265625 C226.3798868 141.91680009 227.04604455 143.5629704 227.7265625 145.203125 C229.33342725 149.17581644 230.59805494 153.12776396 231.7265625 157.265625 C232.22162802 158.70483186 232.72198889 160.14222399 233.2265625 161.578125 C234.61374084 165.6696005 235.51746801 169.75818922 236.296875 174.00390625 C236.68688102 176.25667451 236.68688102 176.25667451 237.34375 178.37109375 C237.7265625 180.265625 237.7265625 180.265625 236.7265625 183.265625 C237.3865625 183.265625 238.0465625 183.265625 238.7265625 183.265625 C239.49228862 188.02061842 239.85279131 192.57658932 239.85595703 197.39086914 C239.85858551 198.40207069 239.85858551 198.40207069 239.86126709 199.43370056 C239.86563174 201.6394211 239.86276708 203.84506004 239.859375 206.05078125 C239.86004951 207.59582026 239.86102076 209.14085917 239.86227417 210.68589783 C239.86374378 213.91438819 239.86162004 217.14285077 239.85693359 220.37133789 C239.85123196 224.49922168 239.85452274 228.6270405 239.86050606 232.75492191 C239.8641275 235.94201645 239.86296589 239.12909571 239.86037827 242.31619072 C239.85971363 243.83795619 239.86052116 245.35972307 239.86285782 246.88148689 C239.86541092 249.01095357 239.86150669 251.1403164 239.85595703 253.26977539 C239.85476364 255.08343346 239.85476364 255.08343346 239.85354614 256.93373108 C239.73172532 260.13015909 239.32890288 263.12756203 238.7265625 266.265625 C238.0665625 266.265625 237.4065625 266.265625 236.7265625 266.265625 C236.9328125 267.11125 237.1390625 267.956875 237.3515625 268.828125 C237.70749593 272.09084814 237.41388928 274.12031957 236.40234375 277.203125 C235.56335943 279.76372454 234.86627828 282.35181333 234.1640625 284.953125 C233.79087891 286.32017578 233.79087891 286.32017578 233.41015625 287.71484375 C232.82627156 289.89356777 232.26515687 292.07534122 231.7265625 294.265625 C231.0665625 294.265625 230.4065625 294.265625 229.7265625 294.265625 C230.0565625 295.255625 230.3865625 296.245625 230.7265625 297.265625 C229.24479509 304.95749625 225.04583481 312.25296575 221.7265625 319.265625 C220.59605352 321.70061681 219.47405819 324.13941686 218.3515625 326.578125 C217.4765625 328.47395833 216.6015625 330.36979167 215.7265625 332.265625 C215.0665625 332.265625 214.4065625 332.265625 213.7265625 332.265625 C213.61441406 332.99652344 213.50226563 333.72742188 213.38671875 334.48046875 C212.24437553 339.29994043 209.37519583 343.13103464 206.7265625 347.265625 C206.03175781 348.36003906 205.33695312 349.45445312 204.62109375 350.58203125 C200.49608505 356.94611572 200.49608505 356.94611572 198.7265625 359.265625 C198.0665625 359.265625 197.4065625 359.265625 196.7265625 359.265625 C196.52933594 359.93078125 196.33210938 360.5959375 196.12890625 361.28125 C194.16767677 365.45500855 191.32292878 368.57392752 188.2890625 372.015625 C187.70318359 372.70011719 187.11730469 373.38460938 186.51367188 374.08984375 C182.11062558 379.13760397 182.11062558 379.13760397 178.7265625 380.265625 C178.04169525 381.58970169 177.37786047 382.92471741 176.7265625 384.265625 C174.7265625 386.515625 174.7265625 386.515625 172.7265625 388.265625 C172.0665625 388.265625 171.4065625 388.265625 170.7265625 388.265625 C170.48292969 388.84183594 170.23929687 389.41804688 169.98828125 390.01171875 C159.84557818 408.13041743 130.09468754 421.22449247 112.484375 429.89453125 C110.88347101 430.69044811 109.29003726 431.50257158 107.71875 432.35546875 C103.26174538 434.75762059 98.63262842 436.44574457 93.8515625 438.078125 C93.18406982 438.30959229 92.51657715 438.54105957 91.82885742 438.77954102 C86.9687488 440.38671815 86.9687488 440.38671815 84.7265625 439.265625 C84.7265625 439.925625 84.7265625 440.585625 84.7265625 441.265625 C77.7174451 443.56282049 71.08102208 445.59703777 63.7265625 446.265625 C62.9634375 446.471875 62.2003125 446.678125 61.4140625 446.890625 C59.7265625 447.265625 59.7265625 447.265625 56.7265625 446.265625 C56.7265625 446.925625 56.7265625 447.585625 56.7265625 448.265625 C48.33860967 449.35113115 40.00488897 449.41243426 31.55859375 449.3984375 C30.10991907 449.3991128 28.66124449 449.4000847 27.21257019 449.40133667 C24.19451811 449.40280161 21.17649585 449.40069716 18.15844727 449.39599609 C14.30539244 449.39028409 10.45240706 449.39359476 6.59935474 449.39956856 C3.61467471 449.40319369 0.63001097 449.40202689 -2.35466957 449.39944077 C-3.7751294 449.39877769 -5.19559076 449.39957805 -6.61604881 449.40192032 C-8.60365136 449.40448076 -10.59125917 449.39988171 -12.57885742 449.39501953 C-13.705634 449.39422394 -14.83241058 449.39342834 -15.99333191 449.39260864 C-19.47657302 449.25776096 -22.83315629 448.81479578 -26.2734375 448.265625 C-26.2734375 447.605625 -26.2734375 446.945625 -26.2734375 446.265625 C-27.31757813 446.55179687 -27.31757813 446.55179687 -28.3828125 446.84375 C-36.49134778 448.02715785 -45.66099473 443.96316966 -53.2734375 441.265625 C-54.75212624 440.7849855 -56.23130238 440.30584315 -57.7109375 439.828125 C-62.65132891 438.17847873 -67.45752924 436.24534239 -72.2734375 434.265625 C-73.28148437 433.86085938 -74.28953125 433.45609375 -75.328125 433.0390625 C-80.91439954 430.76833245 -86.11457472 428.38041007 -91.2734375 425.265625 C-92.91623923 424.34353628 -94.56219199 423.42704333 -96.2109375 422.515625 C-97.36916016 421.87367188 -97.36916016 421.87367188 -98.55078125 421.21875 C-99.11925781 420.90421875 -99.68773437 420.5896875 -100.2734375 420.265625 C-100.2734375 419.605625 -100.2734375 418.945625 -100.2734375 418.265625 C-100.9953125 418.17023438 -101.7171875 418.07484375 -102.4609375 417.9765625 C-105.69772548 417.15837443 -107.59916899 415.87125512 -110.2734375 413.890625 C-112.83968624 412.00603608 -115.31686312 410.24089652 -118.0859375 408.6640625 C-118.8078125 408.20257813 -119.5296875 407.74109375 -120.2734375 407.265625 C-120.2734375 406.605625 -120.2734375 405.945625 -120.2734375 405.265625 C-120.97082031 405.0490625 -121.66820313 404.8325 -122.38671875 404.609375 C-126.00849735 402.92345912 -128.60857725 400.49458277 -131.4609375 397.765625 C-131.99396484 397.26675781 -132.52699219 396.76789063 -133.07617188 396.25390625 C-135.17220743 394.28706031 -137.24094764 392.29811486 -139.2734375 390.265625 C-140.39480682 389.32378525 -141.52021353 388.38674265 -142.6484375 387.453125 C-145.58774341 384.95107121 -147.91513523 382.33141795 -150.2734375 379.265625 C-151.42392578 378.1209375 -151.42392578 378.1209375 -152.59765625 376.953125 C-159.37936876 370.14171156 -165.26041524 362.47253281 -170.8984375 354.703125 C-171.33631592 354.10765869 -171.77419434 353.51219238 -172.2253418 352.89868164 C-175.2734375 348.62520849 -175.2734375 348.62520849 -175.2734375 345.265625 C-175.9334375 345.265625 -176.5934375 345.265625 -177.2734375 345.265625 C-178.734066 342.61823584 -179.2734375 341.37114166 -179.2734375 338.265625 C-179.9334375 338.265625 -180.5934375 338.265625 -181.2734375 338.265625 C-182.2832848 336.35412832 -183.28098245 334.43620931 -184.2734375 332.515625 C-184.8303125 331.44828125 -185.3871875 330.3809375 -185.9609375 329.28125 C-187.2734375 326.265625 -187.2734375 326.265625 -187.2734375 322.265625 C-188.2634375 321.935625 -189.2534375 321.605625 -190.2734375 321.265625 C-191.20898437 319.61083984 -191.20898437 319.61083984 -191.9921875 317.4765625 C-192.28480469 316.69925781 -192.57742187 315.92195313 -192.87890625 315.12109375 C-193.17410156 314.30253906 -193.46929687 313.48398437 -193.7734375 312.640625 C-194.36607845 311.04385877 -194.95981476 309.44749862 -195.5546875 307.8515625 C-195.84085938 307.07393555 -196.12703125 306.29630859 -196.421875 305.49511719 C-197.19868746 303.46132951 -198.04212216 301.47951524 -198.9296875 299.4921875 C-200.10818639 296.66241981 -200.79871208 294.27221934 -201.2734375 291.265625 C-201.83693381 288.1335247 -202.44311985 285.89090981 -203.7734375 282.953125 C-205.97116266 277.55038397 -206.4971203 272.01742971 -207.2734375 266.265625 C-207.76674143 263.29405607 -208.26280403 260.32464968 -208.796875 257.36010742 C-209.57315068 251.84224256 -209.41600104 246.27916956 -209.40625 240.71875 C-209.40720673 239.51176453 -209.40816345 238.30477905 -209.40914917 237.06121826 C-209.40982813 234.51281685 -209.40799368 231.96441369 -209.40380859 229.41601562 C-209.3984751 225.54292854 -209.40375365 221.66995841 -209.41015625 217.796875 C-209.40949505 215.31249975 -209.40821303 212.82812457 -209.40625 210.34375 C-209.40827423 209.19755188 -209.41029846 208.05135376 -209.41238403 206.87042236 C-209.38293868 196.61610194 -208.64693446 186.81229156 -206.2734375 176.828125 C-206.09554687 176.05275391 -205.91765625 175.27738281 -205.734375 174.47851562 C-204.94784874 171.06534383 -204.12840126 167.66230901 -203.2734375 164.265625 C-202.6134375 164.265625 -201.9534375 164.265625 -201.2734375 164.265625 C-201.55767578 163.40324219 -201.55767578 163.40324219 -201.84765625 162.5234375 C-202.34380307 159.89249379 -201.99362691 158.63792277 -201.0859375 156.140625 C-200.80234375 155.35300781 -200.51875 154.56539062 -200.2265625 153.75390625 C-198.62413196 149.57051177 -196.96642408 145.41312745 -195.2734375 141.265625 C-194.52211135 139.391156 -193.77206902 137.51617181 -193.0234375 135.640625 C-192.44010417 134.18229167 -191.85677083 132.72395833 -191.2734375 131.265625 C-190.6134375 131.265625 -189.9534375 131.265625 -189.2734375 131.265625 C-189.13228516 129.98558594 -189.13228516 129.98558594 -188.98828125 128.6796875 C-188.18153651 124.82670987 -186.76434445 122.0644494 -184.8359375 118.640625 C-184.21847656 117.53460938 -183.60101563 116.42859375 -182.96484375 115.2890625 C-182.40667969 114.29132813 -181.84851563 113.29359375 -181.2734375 112.265625 C-180.59640849 110.93752337 -179.92435737 109.60671618 -179.2734375 108.265625 C-178.6134375 108.265625 -177.9534375 108.265625 -177.2734375 108.265625 C-176.9434375 106.615625 -176.6134375 104.965625 -176.2734375 103.265625 C-175.2834375 102.935625 -174.2934375 102.605625 -173.2734375 102.265625 C-173.20125 101.56695312 -173.1290625 100.86828125 -173.0546875 100.1484375 C-172.06400962 96.49283611 -170.11448376 94.02946479 -167.7734375 91.140625 C-167.32057373 90.57005371 -166.86770996 89.99948242 -166.40112305 89.41162109 C-165.47111978 88.24322629 -164.53712076 87.07800062 -163.59912109 85.91601562 C-162.42772829 84.45770709 -161.28032122 82.9802021 -160.13671875 81.5 C-155.55352055 75.66842591 -150.55163648 70.34019949 -145.3359375 65.078125 C-144.67247314 64.40539551 -144.00900879 63.73266602 -143.32543945 63.03955078 C-142.70113037 62.41935059 -142.07682129 61.79915039 -141.43359375 61.16015625 C-140.87293213 60.60175049 -140.31227051 60.04334473 -139.73461914 59.46801758 C-138.2734375 58.265625 -138.2734375 58.265625 -136.2734375 58.265625 C-135.7165625 57.21375 -135.7165625 57.21375 -135.1484375 56.140625 C-133.03007507 52.89246927 -130.92065139 51.30258827 -127.79296875 49.0859375 C-125.82535713 47.66437623 -123.92850722 46.21109566 -122.03515625 44.6953125 C-121.18219971 44.01795044 -121.18219971 44.01795044 -120.31201172 43.3269043 C-119.17975067 42.42573981 -118.05227113 41.51852763 -116.93017578 40.60473633 C-113.76200051 38.10940096 -111.31662592 36.66319269 -107.2734375 36.265625 C-106.9434375 35.275625 -106.6134375 34.285625 -106.2734375 33.265625 C-104.6234375 32.935625 -102.9734375 32.605625 -101.2734375 32.265625 C-101.2734375 31.605625 -101.2734375 30.945625 -101.2734375 30.265625 C-100.08427734 29.67974609 -100.08427734 29.67974609 -98.87109375 29.08203125 C-93.58600097 26.44026048 -88.38658786 23.63055048 -83.17382812 20.84960938 C-79.26548279 18.7793932 -75.43299535 16.78989294 -71.2734375 15.265625 C-70.05011719 14.79125 -68.82679688 14.316875 -67.56640625 13.828125 C-66.19816508 13.30663943 -64.82966967 12.78582048 -63.4609375 12.265625 C-62.78740234 12.00523438 -62.11386719 11.74484375 -61.41992188 11.4765625 C-56.75936267 9.71045585 -52.1585652 8.27961907 -47.2734375 7.265625 C-46.2834375 7.760625 -46.2834375 7.760625 -45.2734375 8.265625 C-45.2734375 7.605625 -45.2734375 6.945625 -45.2734375 6.265625 C-41.8298441 5.38372913 -38.3694817 4.59461417 -34.8984375 3.828125 C-33.79757813 3.58191406 -32.69671875 3.33570313 -31.5625 3.08203125 C-21.05040763 0.9793003 -10.71327372 -0.03857527 0 0 Z M-0.2734375 60.265625 C-0.2734375 60.925625 -0.2734375 61.585625 -0.2734375 62.265625 C-3.2434375 61.935625 -6.2134375 61.605625 -9.2734375 61.265625 C-9.2734375 61.925625 -9.2734375 62.585625 -9.2734375 63.265625 C-9.7890625 63.08 -10.3046875 62.894375 -10.8359375 62.703125 C-16.25890186 61.72977242 -20.96741203 63.44438188 -25.96484375 65.44140625 C-29.72666213 66.78445816 -33.60437218 67.63714726 -37.484375 68.5703125 C-40.47423705 69.31568427 -43.37529843 70.21907478 -46.2734375 71.265625 C-46.2734375 71.925625 -46.2734375 72.585625 -46.2734375 73.265625 C-47.4490625 73.595625 -48.6246875 73.925625 -49.8359375 74.265625 C-55.27072186 76.05121603 -60.14038352 78.73121337 -65.13110352 81.484375 C-67.8277051 82.97119147 -70.34394022 84.28912591 -73.2734375 85.265625 C-74.62099942 86.58457626 -75.95210464 87.92039824 -77.2734375 89.265625 C-79.10138819 90.69561836 -80.95711542 92.09065947 -82.8359375 93.453125 C-83.78597656 94.14792969 -84.73601562 94.84273437 -85.71484375 95.55859375 C-88.2734375 97.265625 -88.2734375 97.265625 -91.2734375 98.265625 C-92.78374765 99.755478 -92.78374765 99.755478 -94.2734375 101.640625 C-98.95485175 107.17411679 -104.11310409 112.18231149 -109.2734375 117.265625 C-114.0820631 122.0742506 -117.76598867 127.85793716 -121.1953125 133.69921875 C-122.2734375 135.265625 -122.2734375 135.265625 -124.2734375 136.265625 C-125.63839053 138.74735779 -126.91365384 141.22016757 -128.1484375 143.765625 C-128.50486328 144.49088379 -128.86128906 145.21614258 -129.22851562 145.96337891 C-133.9983716 154.32232234 -133.9983716 154.32232234 -136.2734375 163.265625 C-137.2634375 163.760625 -137.2634375 163.760625 -138.2734375 164.265625 C-138.79453558 165.91927093 -139.30429284 167.57777271 -139.7421875 169.25537109 C-140.26355475 171.22822859 -140.86046807 173.15758667 -141.4921875 175.09765625 C-146.38053978 187.57168154 -146.38053978 187.57168154 -146.2734375 200.265625 C-146.9334375 200.595625 -147.5934375 200.925625 -148.2734375 201.265625 C-147.9434375 203.905625 -147.6134375 206.545625 -147.2734375 209.265625 C-147.9334375 209.595625 -148.5934375 209.925625 -149.2734375 210.265625 C-149.56337274 227.49223866 -148.78574856 244.22264997 -146.2734375 261.265625 C-145.6134375 261.265625 -144.9534375 261.265625 -144.2734375 261.265625 C-144.6034375 262.255625 -144.9334375 263.245625 -145.2734375 264.265625 C-144.88410894 266.40818293 -144.88410894 266.40818293 -144.2734375 268.265625 C-143.6134375 268.265625 -142.9534375 268.265625 -142.2734375 268.265625 C-142.1496875 269.235 -142.0259375 270.204375 -141.8984375 271.203125 C-141.27479941 275.61378277 -140.28597244 279.93040259 -139.2734375 284.265625 C-138.6134375 284.265625 -137.9534375 284.265625 -137.2734375 284.265625 C-137.07234375 285.09707031 -137.07234375 285.09707031 -136.8671875 285.9453125 C-136.2270795 288.44678718 -135.5119942 290.91646006 -134.7734375 293.390625 C-134.515625 294.25945312 -134.2578125 295.12828125 -133.9921875 296.0234375 C-133.33517423 298.26951627 -133.33517423 298.26951627 -132.2734375 300.265625 C-131.6134375 300.265625 -130.9534375 300.265625 -130.2734375 300.265625 C-129.9846875 301.173125 -129.6959375 302.080625 -129.3984375 303.015625 C-128.50811974 305.58765408 -127.55849337 307.87909266 -126.2734375 310.265625 C-125.6134375 310.265625 -124.9534375 310.265625 -124.2734375 310.265625 C-124.2734375 311.585625 -124.2734375 312.905625 -124.2734375 314.265625 C-122.63040797 315.95559823 -120.95872438 317.61778894 -119.2734375 319.265625 C-117.89335061 321.30046902 -116.63116233 323.37608075 -115.38671875 325.49609375 C-114.26878745 327.41825086 -114.26878745 327.41825086 -112.2734375 329.265625 C-111.7990625 330.11125 -111.3246875 330.956875 -110.8359375 331.828125 C-109.44679699 334.5567381 -109.44679699 334.5567381 -106.2734375 335.265625 C-105.9846875 335.86375 -105.6959375 336.461875 -105.3984375 337.078125 C-103.9042012 339.98358446 -101.8554058 341.28411445 -99.2734375 343.265625 C-96.71708871 345.75806507 -94.23567239 348.30527837 -91.7734375 350.890625 C-87.63035073 354.89068972 -87.63035073 354.89068972 -82.2734375 356.265625 C-82.2734375 356.925625 -82.2734375 357.585625 -82.2734375 358.265625 C-80.01045297 359.9023005 -77.76076638 361.41128011 -75.3984375 362.890625 C-74.42197266 363.52097656 -74.42197266 363.52097656 -73.42578125 364.1640625 C-70.11096248 366.47689026 -70.11096248 366.47689026 -66.2734375 367.265625 C-65.9434375 367.925625 -65.6134375 368.585625 -65.2734375 369.265625 C-63.49488546 370.20771517 -61.67492785 371.07276453 -59.8359375 371.890625 C-58.84722656 372.33664062 -57.85851562 372.78265625 -56.83984375 373.2421875 C-54.42430628 374.38909681 -54.42430628 374.38909681 -52.2734375 374.265625 C-51.9434375 374.925625 -51.6134375 375.585625 -51.2734375 376.265625 C-48.8417699 377.40570019 -48.8417699 377.40570019 -45.9609375 378.390625 C-44.51267578 378.92042969 -44.51267578 378.92042969 -43.03515625 379.4609375 C-40.11281393 380.45211784 -40.11281393 380.45211784 -36.2734375 380.265625 C-35.9434375 380.925625 -35.6134375 381.585625 -35.2734375 382.265625 C-34.2834375 382.595625 -33.2934375 382.925625 -32.2734375 383.265625 C-31.6134375 382.935625 -30.9534375 382.605625 -30.2734375 382.265625 C-30.2734375 382.925625 -30.2734375 383.585625 -30.2734375 384.265625 C-23.04145156 385.4905019 -15.80490171 386.67098827 -8.55078125 387.7578125 C-6.39310469 388.09213664 -4.23905443 388.45092553 -2.08984375 388.8359375 C12.80607634 391.42494687 26.53515086 390.01178913 41.31347656 387.65039062 C43.4678145 387.30688227 45.62344766 386.97713715 47.78125 386.65625 C52.45486325 385.95679768 57.09785875 385.22155295 61.7265625 384.265625 C61.7265625 383.605625 61.7265625 382.945625 61.7265625 382.265625 C62.7165625 382.595625 63.7065625 382.925625 64.7265625 383.265625 C67.34257341 382.31583573 67.34257341 382.31583573 70.1015625 380.890625 C73.66710741 379.13240864 76.78947306 377.88124262 80.7265625 377.265625 C80.7265625 376.605625 80.7265625 375.945625 80.7265625 375.265625 C81.28085937 375.14574219 81.83515625 375.02585937 82.40625 374.90234375 C90.01951527 372.81318173 96.99974457 368.67797136 103.6328125 364.5 C105.7265625 363.265625 105.7265625 363.265625 108.7265625 362.265625 C110.4353271 360.89047959 110.4353271 360.89047959 111.7265625 359.265625 C111.7265625 358.605625 111.7265625 357.945625 111.7265625 357.265625 C112.42652344 357.0490625 113.12648438 356.8325 113.84765625 356.609375 C117.4448327 354.93036727 119.98021091 352.50028051 122.7890625 349.765625 C125.91770688 346.74244054 128.75285999 344.12717933 132.7265625 342.265625 C133.63642533 340.91768007 134.53800268 339.56304004 135.38671875 338.17578125 C137.80349436 334.73029066 140.80772925 331.77496295 143.703125 328.73046875 C145.70623758 326.29038374 146.73940055 324.24303281 147.7265625 321.265625 C148.3865625 321.265625 149.0465625 321.265625 149.7265625 321.265625 C151.87168333 318.91939909 153.49231359 316.85905557 154.6640625 313.890625 C155.7265625 311.265625 155.7265625 311.265625 158.1015625 308.078125 C161.605464 303.35096795 163.96617056 297.77937164 165.2109375 292.02734375 C165.38109375 291.44597656 165.55125 290.86460937 165.7265625 290.265625 C166.3865625 289.935625 167.0465625 289.605625 167.7265625 289.265625 C168.66303701 286.95798844 169.5016137 284.68579812 170.2890625 282.328125 C172.6559789 275.40679219 172.6559789 275.40679219 173.7265625 273.265625 C173.3965625 272.605625 173.0665625 271.945625 172.7265625 271.265625 C173.3865625 271.265625 174.0465625 271.265625 174.7265625 271.265625 C174.8503125 270.151875 174.9740625 269.038125 175.1015625 267.890625 C175.49035192 264.76080175 176.01831852 261.69995021 176.6640625 258.61328125 C181.82877451 233.11398427 181.79438792 208.79559341 175.27734375 183.49609375 C174.7265625 181.265625 174.7265625 181.265625 174.7265625 179.265625 C174.0665625 179.265625 173.4065625 179.265625 172.7265625 179.265625 C172.9121875 178.646875 173.0978125 178.028125 173.2890625 177.390625 C173.96342426 175.22402322 173.96342426 175.22402322 172.7265625 173.265625 C172.0665625 173.265625 171.4065625 173.265625 170.7265625 173.265625 C170.76523437 172.54890625 170.80390625 171.8321875 170.84375 171.09375 C170.71563493 168.00190629 170.02197474 165.86903879 168.8515625 163.015625 C168.50351562 162.14421875 168.15546875 161.2728125 167.796875 160.375 C166.91053962 158.10958736 166.91053962 158.10958736 164.7265625 157.265625 C164.01750312 155.28025873 163.35962071 153.27651578 162.7265625 151.265625 C161.21708931 146.47328001 161.21708931 146.47328001 157.7265625 143.265625 C157.04265091 141.60596023 156.37953611 139.93770385 155.7265625 138.265625 C154.60333365 136.30262364 153.4346478 134.36507355 152.2265625 132.453125 C151.618125 131.47730469 151.0096875 130.50148438 150.3828125 129.49609375 C149.56296875 128.39201172 149.56296875 128.39201172 148.7265625 127.265625 C148.0665625 127.265625 147.4065625 127.265625 146.7265625 127.265625 C146.4996875 126.37875 146.2728125 125.491875 146.0390625 124.578125 C144.52992677 120.76935388 142.70678003 119.03296985 139.7265625 116.265625 C139.0665625 115.42 138.4065625 114.574375 137.7265625 113.703125 C135.61365035 111.12801331 133.36011262 109.29143278 130.7265625 107.265625 C129.7265625 106.265625 128.7265625 105.265625 127.7265625 104.265625 C127.0665625 103.935625 126.4065625 103.605625 125.7265625 103.265625 C124.6015625 101.203125 124.6015625 101.203125 123.7265625 99.265625 C123.0665625 99.265625 122.4065625 99.265625 121.7265625 99.265625 C121.0665625 98.605625 120.4065625 97.945625 119.7265625 97.265625 C116.04426282 94.36291129 112.27385197 91.58540086 108.3515625 89.015625 C105.7265625 87.265625 105.7265625 87.265625 103.7265625 85.265625 C102.7365625 85.265625 101.7465625 85.265625 100.7265625 85.265625 C100.7265625 84.605625 100.7265625 83.945625 100.7265625 83.265625 C99.43742763 82.59407567 98.14516046 81.92853641 96.8515625 81.265625 C95.77261719 80.70875 95.77261719 80.70875 94.671875 80.140625 C92.77807273 79.12888754 92.77807273 79.12888754 90.7265625 79.265625 C90.3965625 78.605625 90.0665625 77.945625 89.7265625 77.265625 C87.9784769 76.4311506 87.9784769 76.4311506 85.9140625 75.765625 C83.64028062 74.96574102 81.56233065 74.18128973 79.4140625 73.078125 C77.58821425 72.04871719 77.58821425 72.04871719 74.7265625 72.265625 C74.7265625 71.605625 74.7265625 70.945625 74.7265625 70.265625 C70.40634021 69.25659349 66.13850034 68.27010854 61.7265625 67.765625 C60.7365625 67.600625 59.7465625 67.435625 58.7265625 67.265625 C58.3965625 66.605625 58.0665625 65.945625 57.7265625 65.265625 C55.80018238 64.51318945 55.80018238 64.51318945 53.7265625 64.265625 C53.0665625 64.595625 52.4065625 64.925625 51.7265625 65.265625 C51.7265625 64.605625 51.7265625 63.945625 51.7265625 63.265625 C51.118125 63.21664062 50.5096875 63.16765625 49.8828125 63.1171875 C45.67310246 62.758124 41.49243137 62.3804177 37.3125 61.75390625 C24.7951543 59.89606863 12.35932059 60.06918259 -0.2734375 60.265625 Z " fill="#3B64AC" transform="translate(234.2734375,24.734375)"/>
<path d="M0 0 C1.04181752 0.00873852 1.04181752 0.00873852 2.10468185 0.01765358 C2.84143012 0.01594473 3.5781784 0.01423589 4.33725238 0.01247525 C6.81865394 0.00916752 9.29978814 0.02020496 11.781165 0.03111184 C13.55483641 0.03167567 15.32850828 0.03135993 17.10217941 0.03022683 C21.92839392 0.02965124 26.75450973 0.04143877 31.58070123 0.05537474 C36.6202449 0.06784788 41.65979065 0.0690499 46.69934738 0.07142556 C56.24744746 0.0776504 65.79550194 0.09407476 75.34358191 0.11412454 C86.21161344 0.13645235 97.07964711 0.14746911 107.94769585 0.15751541 C130.3087148 0.17844014 152.66969321 0.21363557 175.03067672 0.25816262 C175.18469277 15.16588704 175.33272266 30.07366198 175.47364032 44.981516 C175.53921118 51.903597 175.60673549 58.82564861 175.67887008 65.74766457 C175.74845997 72.42601863 175.81259071 79.10440462 175.87337196 85.78284562 C175.89747362 88.33257558 175.92341395 90.88228885 175.95121086 93.43198121 C175.9897895 96.99925925 176.02186907 100.56654036 176.05240524 104.13389504 C176.07182426 105.71993287 176.07182426 105.71993287 176.09163558 107.33801186 C176.10219482 108.79976342 176.10219482 108.79976342 176.11296737 110.29104531 C176.12541158 111.55620618 176.12541158 111.55620618 176.13810718 112.84692585 C176.02393021 115.40958556 175.58484271 117.75657963 175.03067672 120.25816262 C174.88887985 121.13214699 174.74708297 122.00613137 174.60098922 122.90660012 C173.69667654 128.44353215 172.63421572 133.2680462 170.03067672 138.25816262 C169.37067672 138.58816262 168.71067672 138.91816262 168.03067672 139.25816262 C168.36067672 140.24816262 168.69067672 141.23816262 169.03067672 142.25816262 C168.10489547 144.37925637 168.10489547 144.37925637 166.71817672 146.69566262 C165.05434345 149.51321408 163.45954489 152.31321836 162.03067672 155.25816262 C161.37067672 155.25816262 160.71067672 155.25816262 160.03067672 155.25816262 C159.94302047 155.81632668 159.85536422 156.37449074 159.76505172 156.94956887 C157.12781248 165.24003903 148.28463128 172.98018942 141.03067672 177.25816262 C140.48669235 177.84855324 139.94270797 178.43894387 139.38223922 179.04722512 C136.22638964 182.0143528 132.73432952 183.96554931 128.96817672 186.07066262 C128.24823532 186.49025246 127.52829391 186.90984231 126.7865361 187.34214699 C125.74529586 187.9289927 125.74529586 187.9289927 124.68302047 188.52769387 C124.05387741 188.88452248 123.42473434 189.24135109 122.77652633 189.6089927 C121.03067672 190.25816262 121.03067672 190.25816262 118.03067672 189.25816262 C117.70067672 189.91816262 117.37067672 190.57816262 117.03067672 191.25816262 C101.92325518 198.1408148 82.6492837 198.85821745 66.59317672 195.94566262 C65.931082 195.82803566 65.26898727 195.71040871 64.58682907 195.58921731 C60.32489928 194.74482179 56.84471308 193.30593033 53.03067672 191.25816262 C52.12317672 190.96941262 51.21567672 190.68066262 50.28067672 190.38316262 C41.78241426 187.44145638 34.89990751 182.99132831 28.03067672 177.25816262 C27.46348922 176.80183449 26.89630172 176.34550637 26.31192672 175.87535012 C11.77850306 164.08548092 1.02610354 148.61048981 -2.96932328 130.25816262 C-3.53155391 128.17475657 -4.09405861 126.09142447 -4.65682328 124.00816262 C-5.76800656 119.57494433 -6.16689768 115.80237386 -5.96932328 111.25816262 C-6.29932328 110.59816262 -6.62932328 109.93816262 -6.96932328 109.25816262 C-7.06536301 107.83096759 -7.09998083 106.39939754 -7.10303605 104.96897805 C-7.10730103 104.06880455 -7.11156601 103.16863106 -7.11596024 102.24117959 C-7.11550705 101.2509832 -7.11505387 100.26078682 -7.11458695 99.24058449 C-7.11794556 98.19987298 -7.12130417 97.15916146 -7.12476456 96.08691323 C-7.13429362 92.63356768 -7.13621855 89.18027051 -7.13729203 85.72691262 C-7.14050286 83.33559568 -7.1438668 80.94427894 -7.14737809 78.55296242 C-7.15337398 73.53590863 -7.15521748 68.51887208 -7.15462601 63.50181496 C-7.15452427 57.05849926 -7.16818641 50.61529348 -7.18539822 44.17200387 C-7.19649023 39.23250229 -7.1985461 34.29302755 -7.19801629 29.35351479 C-7.19920026 26.97715798 -7.20364519 24.60080057 -7.21134865 22.22445595 C-7.22109369 18.90813806 -7.21829245 15.59206213 -7.2122432 12.27574074 C-7.21786271 11.28554436 -7.22348221 10.29534798 -7.22927201 9.27514565 C-7.22507752 8.37497216 -7.22088303 7.47479867 -7.21656144 6.54734719 C-7.2171062 5.76273362 -7.21765097 4.97812005 -7.21821225 4.16973031 C-6.64916182 -0.20080653 -3.71848625 0.02346677 0 0 Z " fill="#F3A8A6" transform="translate(164.96932327747345,143.7418373823166)"/>
<path d="M0 0 C29.7 0 59.4 0 90 0 C90.29007094 28.53851771 90.29007094 28.53851771 90.42309284 42.62521267 C90.49515092 50.24667519 90.56877057 57.86811224 90.64819336 65.48950195 C90.71778324 72.16785602 90.78191399 78.846242 90.84269524 85.524683 C90.8667969 88.07441297 90.89273723 90.62412623 90.92053413 93.17381859 C90.95911278 96.74109663 90.99119234 100.30837774 91.02172852 103.87573242 C91.03467453 104.93309097 91.04762054 105.99044952 91.06095886 107.07984924 C91.0715181 108.5416008 91.0715181 108.5416008 91.08229065 110.03288269 C91.09058679 110.87632327 91.09888292 111.71976385 91.10743046 112.58876324 C90.99325349 115.15142294 90.55416599 117.49841702 90 120 C89.85820312 120.87398438 89.71640625 121.74796875 89.5703125 122.6484375 C88.66599982 128.18536954 87.603539 133.00988359 85 138 C84.34 138.33 83.68 138.66 83 139 C83.33 139.99 83.66 140.98 84 142 C83.07421875 144.12109375 83.07421875 144.12109375 81.6875 146.4375 C80.02366673 149.25505147 78.42886817 152.05505574 77 155 C76.34 155 75.68 155 75 155 C74.91234375 155.55816406 74.8246875 156.11632812 74.734375 156.69140625 C72.09713576 164.98187642 63.25395456 172.7220268 56 177 C55.45601563 177.59039062 54.91203125 178.18078125 54.3515625 178.7890625 C51.19571292 181.75619018 47.7036528 183.70738669 43.9375 185.8125 C43.21755859 186.23208984 42.49761719 186.65167969 41.75585938 187.08398438 C40.71461914 187.67083008 40.71461914 187.67083008 39.65234375 188.26953125 C39.02320068 188.62635986 38.39405762 188.98318848 37.74584961 189.35083008 C36 190 36 190 33 189 C32.67 189.66 32.34 190.32 32 191 C23.52616693 194.8605162 9.02666969 199.0088899 0 196 C0 163.66 0 131.32 0 98 C-2.97 97.67 -5.94 97.34 -9 97 C-12.06640625 95.80859375 -12.06640625 95.80859375 -14.5625 94.4375 C-15.40941406 93.98246094 -16.25632813 93.52742188 -17.12890625 93.05859375 C-18.05509766 92.53458984 -18.05509766 92.53458984 -19 92 C-17.79618552 89.50638429 -16.54571278 87.31856917 -15 85 C-14.46375 85.28875 -13.9275 85.5775 -13.375 85.875 C-6.98468976 88.90198906 -0.67431168 90.40391653 6.25 88.32421875 C8.17742069 87.57663462 10.08975693 86.79044541 12 86 C12.99 86 13.98 86 15 86 C18 89.33333333 18 89.33333333 18 92 C33.18 92 48.36 92 64 92 C64 70.55 64 49.1 64 27 C42.88 27 21.76 27 0 27 C0 18.09 0 9.18 0 0 Z " fill="#39BCED" transform="translate(250,144)"/>
<path d="M0 0 C1.084021 0.00523682 2.16804199 0.01047363 3.28491211 0.01586914 C5.03964844 0.02070313 5.03964844 0.02070313 6.82983398 0.02563477 C8.67738281 0.03820312 8.67738281 0.03820312 10.56225586 0.05102539 C12.41560547 0.05779297 12.41560547 0.05779297 14.30639648 0.06469727 C17.37089703 0.07652931 20.43530307 0.09301366 23.49975586 0.11352539 C24.79897848 4.25479749 25.72823902 7.7723454 25.49975586 12.11352539 C25.40065449 16.48059238 26.1585434 19.93209831 27.49975586 24.11352539 C28.69252694 30.72798322 28.69252694 30.72798322 27.49975586 33.11352539 C28.15975586 33.11352539 28.81975586 33.11352539 29.49975586 33.11352539 C29.81428711 34.03133789 30.12881836 34.94915039 30.45288086 35.89477539 C33.24305924 44.0084636 33.24305924 44.0084636 36.81225586 51.80102539 C38.49975586 55.11352539 38.49975586 55.11352539 38.49975586 58.11352539 C39.15975586 58.11352539 39.81975586 58.11352539 40.49975586 58.11352539 C41.86694336 60.09008789 41.86694336 60.09008789 43.37475586 62.73852539 C43.90327148 63.64731445 44.43178711 64.55610352 44.97631836 65.49243164 C45.47905273 66.35739258 45.98178711 67.22235352 46.49975586 68.11352539 C48.85684182 72.25622441 48.85684182 72.25622441 52.49975586 75.11352539 C52.49975586 76.10352539 52.49975586 77.09352539 52.49975586 78.11352539 C53.03600586 78.31977539 53.57225586 78.52602539 54.12475586 78.73852539 C57.41953595 80.64602965 60.09339214 83.16171923 62.49975586 86.11352539 C62.49975586 86.77352539 62.49975586 87.43352539 62.49975586 88.11352539 C63.20100586 88.34040039 63.90225586 88.56727539 64.62475586 88.80102539 C67.43083479 90.08206142 69.29055977 91.63313614 71.60131836 93.63305664 C82.16651974 101.87217459 96.30182068 108.77195625 109.49975586 111.11352539 C111.18471964 111.73249168 112.86379557 112.37470461 114.49975586 113.11352539 C114.49975586 116.11352539 114.49975586 119.11352539 114.49975586 122.11352539 C122.88691629 123.77888012 130.89595895 124.39884615 139.43725586 124.30102539 C140.53360352 124.30038086 141.62995117 124.29973633 142.75952148 124.29907227 C147.50003749 124.27307309 151.86077282 124.14435721 156.49975586 123.11352539 C158.49872714 122.77407744 160.49851225 122.43930923 162.49975586 122.11352539 C162.27288086 121.02040039 162.04600586 119.92727539 161.81225586 118.80102539 C161.49975586 115.11352539 161.49975586 115.11352539 162.74584961 113.42993164 C165.16906444 111.61117129 167.71546934 111.46671002 170.63647461 110.90258789 C176.88937481 109.17941485 182.69574758 105.96721648 188.49975586 103.11352539 C189.30026367 102.7384082 190.10077148 102.36329102 190.92553711 101.97680664 C216.60557502 89.78007521 233.98200963 66.55011093 244.60522461 40.82836914 C245.49975586 39.11352539 245.49975586 39.11352539 247.49975586 38.11352539 C247.16975586 37.12352539 246.83975586 36.13352539 246.49975586 35.11352539 C246.76928711 33.27368164 246.76928711 33.27368164 247.31225586 31.17602539 C248.47573634 26.38846045 249.27417569 21.58128617 250.03491211 16.71508789 C250.49975586 14.11352539 250.49975586 14.11352539 251.49975586 11.11352539 C251.56778553 9.38557187 251.58471231 7.65517174 251.56225586 5.92602539 C251.55323242 5.0249707 251.54420898 4.12391602 251.53491211 3.19555664 C251.52331055 2.50848633 251.51170898 1.82141602 251.49975586 1.11352539 C254.13973235 -0.20646286 256.14052903 -0.01603493 259.09350586 -0.01928711 C260.76219727 -0.0212207 260.76219727 -0.0212207 262.46459961 -0.02319336 C263.63120117 -0.01932617 264.79780273 -0.01545898 265.99975586 -0.01147461 C267.16635742 -0.0153418 268.33295898 -0.01920898 269.53491211 -0.02319336 C270.64737305 -0.0219043 271.75983398 -0.02061523 272.90600586 -0.01928711 C273.93016602 -0.01815918 274.95432617 -0.01703125 276.00952148 -0.01586914 C278.49975586 0.11352539 278.49975586 0.11352539 280.49975586 1.11352539 C280.62475586 8.73852539 280.62475586 8.73852539 279.49975586 12.11352539 C279.48039616 13.47682836 279.50570602 14.84110195 279.56225586 16.20336914 C279.61946351 21.2447932 278.68836998 25.79708567 277.49975586 30.67602539 C277.30897461 31.49393555 277.11819336 32.3118457 276.92163086 33.15454102 C276.45650459 35.14295583 275.97940158 37.12856295 275.49975586 39.11352539 C274.83975586 39.11352539 274.17975586 39.11352539 273.49975586 39.11352539 C273.82975586 40.43352539 274.15975586 41.75352539 274.49975586 43.11352539 C273.83975586 43.11352539 273.17975586 43.11352539 272.49975586 43.11352539 C272.82975586 44.10352539 273.15975586 45.09352539 273.49975586 46.11352539 C273.16975586 47.10352539 272.83975586 48.09352539 272.49975586 49.11352539 C271.83975586 49.11352539 271.17975586 49.11352539 270.49975586 49.11352539 C270.82975586 50.10352539 271.15975586 51.09352539 271.49975586 52.11352539 C270.50366211 54.81274414 270.50366211 54.81274414 269.06225586 57.80102539 C268.35262695 59.29182617 268.35262695 59.29182617 267.62866211 60.81274414 C267.25612305 61.57200195 266.88358398 62.33125977 266.49975586 63.11352539 C265.83975586 63.11352539 265.17975586 63.11352539 264.49975586 63.11352539 C264.45850586 64.08290039 264.41725586 65.05227539 264.37475586 66.05102539 C263.6000648 71.29589324 260.53644978 74.90356336 257.49975586 79.11352539 C256.72000902 80.26597506 255.94419784 81.42109406 255.17163086 82.57836914 C254.36449846 83.77769509 253.55720736 84.97691425 252.74975586 86.17602539 C252.36110352 86.76077637 251.97245117 87.34552734 251.57202148 87.94799805 C250.5987835 89.37261123 249.554756 90.74835521 248.49975586 92.11352539 C247.83975586 92.11352539 247.17975586 92.11352539 246.49975586 92.11352539 C245.50975586 94.09352539 245.50975586 94.09352539 244.49975586 96.11352539 C243.83975586 96.11352539 243.17975586 96.11352539 242.49975586 96.11352539 C242.39405273 96.70649414 242.28834961 97.29946289 242.17944336 97.91040039 C241.40567987 100.41846135 240.48128795 101.53470273 238.62475586 103.36352539 C238.11170898 103.88430664 237.59866211 104.40508789 237.07006836 104.94165039 C235.49975586 106.11352539 235.49975586 106.11352539 232.49975586 106.11352539 C231.50975586 108.09352539 231.50975586 108.09352539 230.49975586 110.11352539 C229.83975586 110.11352539 229.17975586 110.11352539 228.49975586 110.11352539 C228.49975586 110.77352539 228.49975586 111.43352539 228.49975586 112.11352539 C227.17382812 113.27099609 227.17382812 113.27099609 225.31616211 114.53930664 C224.64061279 115.00369141 223.96506348 115.46807617 223.26904297 115.9465332 C222.17668335 116.67888184 222.17668335 116.67888184 221.06225586 117.42602539 C220.32305908 117.92585938 219.5838623 118.42569336 218.82226562 118.94067383 C213.84508123 122.27812846 208.88480001 125.46900614 203.49975586 128.11352539 C202.93369629 128.39180176 202.36763672 128.67007813 201.78442383 128.95678711 C199.81962598 129.91587317 197.84885073 130.86123214 195.87475586 131.80102539 C195.25270264 132.09912109 194.63064941 132.3972168 193.98974609 132.7043457 C189.87287624 134.6233321 185.91281158 136.09470882 181.49975586 137.11352539 C180.83975586 136.78352539 180.17975586 136.45352539 179.49975586 136.11352539 C179.49975586 136.77352539 179.49975586 137.43352539 179.49975586 138.11352539 C175.53975586 139.10352539 171.57975586 140.09352539 167.49975586 141.11352539 C165.37475586 134.36352539 165.37475586 134.36352539 166.49975586 132.11352539 C165.70311523 132.24629883 164.90647461 132.37907227 164.08569336 132.51586914 C163.02608398 132.6924707 161.96647461 132.86907227 160.87475586 133.05102539 C159.83061523 133.22504883 158.78647461 133.39907227 157.71069336 133.57836914 C156.65108398 133.7549707 155.59147461 133.93157227 154.49975586 134.11352539 C153.57291992 134.29657227 152.64608398 134.47961914 151.69116211 134.66821289 C147.46822936 135.25745932 143.32147529 135.30468382 139.06225586 135.30102539 C138.18714355 135.30094482 137.31203125 135.30086426 136.41040039 135.30078125 C117.54780621 135.13755057 117.54780621 135.13755057 111.49975586 132.11352539 C111.39663086 133.04165039 111.29350586 133.96977539 111.18725586 134.92602539 C110.49273666 138.14606897 110.02234647 139.13932404 107.49975586 141.11352539 C105.18975586 140.45352539 102.87975586 139.79352539 100.49975586 139.11352539 C100.49975586 138.45352539 100.49975586 137.79352539 100.49975586 137.11352539 C99.92999023 137.30430664 99.36022461 137.49508789 98.77319336 137.69165039 C92.98106779 138.76647782 86.48665999 134.71087129 81.49975586 132.11352539 C80.02351084 131.4610414 78.54408151 130.81573427 77.06225586 130.17602539 C73.03019762 128.40602016 69.28138862 126.36641299 65.49975586 124.11352539 C65.49975586 123.45352539 65.49975586 122.79352539 65.49975586 122.11352539 C64.79850586 122.03618164 64.09725586 121.95883789 63.37475586 121.87915039 C59.71531906 120.90462646 57.49397735 119.17029807 54.49975586 116.86352539 C53.48913086 116.09524414 52.47850586 115.32696289 51.43725586 114.53540039 C48.60704192 112.20197933 46.06757236 109.72881413 43.49975586 107.11352539 C42.44985577 106.22344616 41.38867698 105.3463417 40.31225586 104.48852539 C37.02298231 101.70026701 34.0515705 98.64917133 31.12475586 95.48852539 C30.27139648 94.56813477 29.41803711 93.64774414 28.53881836 92.69946289 C26.62368198 90.2706884 26.06987806 89.04368834 25.49975586 86.11352539 C24.83975586 85.78352539 24.17975586 85.45352539 23.49975586 85.11352539 C16.29408677 76.97089624 10.80298537 67.06910576 7.42163086 56.78149414 C6.4936002 53.97327675 6.4936002 53.97327675 5.03100586 50.80493164 C3.39553668 46.86228274 2.26780593 42.99742567 1.24975586 38.86352539 C1.06413086 38.15711914 0.87850586 37.45071289 0.68725586 36.72290039 C-0.623012 31.48182896 -0.623012 31.48182896 0.49975586 28.11352539 C-0.16024414 28.11352539 -0.82024414 28.11352539 -1.50024414 28.11352539 C-2.87362835 19.13747859 -4.19715761 10.22202241 -3.50024414 1.11352539 C-2.50024414 0.11352539 -2.50024414 0.11352539 0 0 Z " fill="#85B33A" transform="translate(111.500244140625,247.886474609375)"/>
<path d="M0 0 C0.83437592 0.00719055 1.66875183 0.0143811 2.52841187 0.02178955 C3.40652527 0.0214975 4.28463867 0.02120544 5.18936157 0.02090454 C8.10049215 0.02230121 11.01136881 0.0378782 13.92245483 0.05352783 C15.9374172 0.05725677 17.95238137 0.0601043 19.96734619 0.06210327 C25.27746565 0.06974915 30.58747616 0.08940583 35.89755249 0.11151123 C41.31339036 0.13194912 46.72924579 0.14110058 52.14511108 0.15118408 C62.77667714 0.17265084 73.40813364 0.20784074 84.03964233 0.24884033 C84.03964233 9.15884033 84.03964233 18.06884033 84.03964233 27.24884033 C62.58964233 27.24884033 41.13964233 27.24884033 19.03964233 27.24884033 C19.13069706 42.03902221 19.13069706 42.03902221 19.24862671 56.82891846 C19.30274545 62.86999113 19.35386255 68.9109751 19.38607788 74.95220947 C19.41227981 79.82829151 19.45279887 84.70407191 19.5028286 89.57996559 C19.51938395 91.43083731 19.53096819 93.28176107 19.53725624 95.13269615 C19.61875677 116.93790717 23.87973369 135.64586548 39.28964233 151.93634033 C52.03856497 164.12628828 66.93165608 168.47348327 84.03964233 170.24884033 C84.03964233 178.82884033 84.03964233 187.40884033 84.03964233 196.24884033 C78.04171683 198.24814883 72.04146924 197.09612121 65.97714233 195.93634033 C64.95523804 195.7594165 64.95523804 195.7594165 63.91268921 195.57891846 C59.51356356 194.75487475 55.96165742 193.3730266 52.03964233 191.24884033 C51.13214233 190.96009033 50.22464233 190.67134033 49.28964233 190.37384033 C40.79137987 187.4321341 33.90887312 182.98200603 27.03964233 177.24884033 C26.47245483 176.79251221 25.90526733 176.33618408 25.32089233 175.86602783 C10.78746867 164.07615864 0.03506915 148.60116752 -3.96035767 130.24884033 C-4.5225883 128.16543429 -5.085093 126.08210219 -5.64785767 123.99884033 C-6.75904095 119.56562204 -7.15793207 115.79305158 -6.96035767 111.24884033 C-7.29035767 110.58884033 -7.62035767 109.92884033 -7.96035767 109.24884033 C-8.0563974 107.82164531 -8.09101522 106.39007526 -8.09407043 104.95965576 C-8.09833542 104.05948227 -8.1026004 103.15930878 -8.10699463 102.2318573 C-8.10654144 101.24166092 -8.10608826 100.25146454 -8.10562134 99.23126221 C-8.10897995 98.19055069 -8.11233856 97.14983917 -8.11579895 96.07759094 C-8.12532801 92.6242454 -8.12725294 89.17094822 -8.12832642 85.71759033 C-8.13153725 83.32627339 -8.13490118 80.93495665 -8.13841248 78.54364014 C-8.14440837 73.52658635 -8.14625186 68.5095498 -8.1456604 63.49249268 C-8.14555866 57.04917698 -8.1592208 50.60597119 -8.17643261 44.16268158 C-8.18752462 39.22318001 -8.18958049 34.28370526 -8.18905067 29.3441925 C-8.19023465 26.9678357 -8.19467957 24.59147828 -8.20238304 22.21513367 C-8.21212808 18.89881578 -8.20932684 15.58273985 -8.20327759 12.26641846 C-8.20889709 11.27622208 -8.2145166 10.2860257 -8.2203064 9.26582336 C-8.21611191 8.36564987 -8.21191742 7.46547638 -8.20759583 6.5380249 C-8.20814059 5.75341133 -8.20868536 4.96879776 -8.20924664 4.16040802 C-7.58634879 -0.62369874 -3.95278615 0.01429892 0 0 Z " fill="#EB7299" transform="translate(165.96035766601563,143.75115966796875)"/>
<path d="M0 0 C1.66869141 -0.00193359 1.66869141 -0.00193359 3.37109375 -0.00390625 C4.53769531 -0.00003906 5.70429688 0.00382813 6.90625 0.0078125 C8.07285156 0.00394531 9.23945313 0.00007812 10.44140625 -0.00390625 C11.55386719 -0.00261719 12.66632813 -0.00132812 13.8125 0 C14.83666016 0.00112793 15.86082031 0.00225586 16.91601562 0.00341797 C19.40625 0.1328125 19.40625 0.1328125 21.40625 1.1328125 C21.53125 8.7578125 21.53125 8.7578125 20.40625 12.1328125 C20.3868903 13.49611547 20.41220016 14.86038906 20.46875 16.22265625 C20.52595765 21.26408031 19.59486412 25.81637278 18.40625 30.6953125 C18.12007812 31.92217773 18.12007812 31.92217773 17.828125 33.17382812 C17.36299873 35.16224294 16.88589573 37.14785006 16.40625 39.1328125 C15.74625 39.1328125 15.08625 39.1328125 14.40625 39.1328125 C14.90125 41.1128125 14.90125 41.1128125 15.40625 43.1328125 C14.74625 43.1328125 14.08625 43.1328125 13.40625 43.1328125 C13.73625 44.1228125 14.06625 45.1128125 14.40625 46.1328125 C14.07625 47.1228125 13.74625 48.1128125 13.40625 49.1328125 C12.74625 49.1328125 12.08625 49.1328125 11.40625 49.1328125 C11.73625 50.1228125 12.06625 51.1128125 12.40625 52.1328125 C11.41015625 54.83203125 11.41015625 54.83203125 9.96875 57.8203125 C9.25912109 59.31111328 9.25912109 59.31111328 8.53515625 60.83203125 C8.16261719 61.59128906 7.79007812 62.35054688 7.40625 63.1328125 C6.74625 63.1328125 6.08625 63.1328125 5.40625 63.1328125 C5.365 64.1021875 5.32375 65.0715625 5.28125 66.0703125 C4.50655894 71.31518035 1.44294392 74.92285047 -1.59375 79.1328125 C-2.37349684 80.28526216 -3.14930802 81.44038116 -3.921875 82.59765625 C-4.72900739 83.7969822 -5.5362985 84.99620136 -6.34375 86.1953125 C-6.73240234 86.78006348 -7.12105469 87.36481445 -7.52148438 87.96728516 C-8.49472236 89.39189834 -9.53874986 90.76764232 -10.59375 92.1328125 C-11.25375 92.1328125 -11.91375 92.1328125 -12.59375 92.1328125 C-13.58375 94.1128125 -13.58375 94.1128125 -14.59375 96.1328125 C-15.25375 96.1328125 -15.91375 96.1328125 -16.59375 96.1328125 C-16.69945312 96.72578125 -16.80515625 97.31875 -16.9140625 97.9296875 C-17.68782599 100.43774846 -18.61221791 101.55398984 -20.46875 103.3828125 C-21.23832031 104.16398437 -21.23832031 104.16398437 -22.0234375 104.9609375 C-23.59375 106.1328125 -23.59375 106.1328125 -26.59375 106.1328125 C-27.58375 108.1128125 -27.58375 108.1128125 -28.59375 110.1328125 C-29.25375 110.1328125 -29.91375 110.1328125 -30.59375 110.1328125 C-30.59375 110.7928125 -30.59375 111.4528125 -30.59375 112.1328125 C-31.91967773 113.2902832 -31.91967773 113.2902832 -33.77734375 114.55859375 C-34.45289307 115.02297852 -35.12844238 115.48736328 -35.82446289 115.96582031 C-36.91682251 116.69816895 -36.91682251 116.69816895 -38.03125 117.4453125 C-38.77044678 117.94514648 -39.50964355 118.44498047 -40.27124023 118.95996094 C-45.24842463 122.29741557 -50.20870585 125.48829325 -55.59375 128.1328125 C-56.15980957 128.41108887 -56.72586914 128.68936523 -57.30908203 128.97607422 C-59.27387988 129.93516028 -61.24465513 130.88051925 -63.21875 131.8203125 C-63.84080322 132.1184082 -64.46285645 132.41650391 -65.10375977 132.72363281 C-69.22062962 134.64261921 -73.18069428 136.11399593 -77.59375 137.1328125 C-78.25375 136.8028125 -78.91375 136.4728125 -79.59375 136.1328125 C-79.59375 136.7928125 -79.59375 137.4528125 -79.59375 138.1328125 C-83.55375 139.1228125 -87.51375 140.1128125 -91.59375 141.1328125 C-92.84103689 137.22464691 -93.69826859 133.66320898 -94.03125 129.5703125 C-94.31792487 126.37902617 -94.71134494 124.90214549 -96.21875 121.9453125 C-97.89188368 118.52299362 -97.54179 116.7526016 -96.59375 113.1328125 C-95.24027311 112.67244621 -93.885923 112.21464713 -92.53125 111.7578125 C-91.77714844 111.50257813 -91.02304687 111.24734375 -90.24609375 110.984375 C-88.2735837 110.35108017 -86.27788057 109.78913837 -84.2734375 109.265625 C-80.18502373 108.00698382 -76.57550445 106.3313997 -72.78125 104.3828125 C-72.07983887 104.02501709 -71.37842773 103.66722168 -70.65576172 103.29858398 C-61.78498904 98.73247477 -54.15197785 94.0794282 -46.83203125 87.21484375 C-44.59375 85.1328125 -44.59375 85.1328125 -41.53125 82.7578125 C-28.96928438 71.5322262 -20.83814074 56.22242242 -14.48828125 40.84765625 C-13.59375 39.1328125 -13.59375 39.1328125 -11.59375 38.1328125 C-11.92375 37.1428125 -12.25375 36.1528125 -12.59375 35.1328125 C-12.32421875 33.29296875 -12.32421875 33.29296875 -11.78125 31.1953125 C-10.61776952 26.40774756 -9.81933017 21.60057328 -9.05859375 16.734375 C-8.59375 14.1328125 -8.59375 14.1328125 -7.59375 11.1328125 C-7.52572033 9.40485898 -7.50879355 7.67445885 -7.53125 5.9453125 C-7.54027344 5.04425781 -7.54929687 4.14320313 -7.55859375 3.21484375 C-7.57019531 2.52777344 -7.58179688 1.84070313 -7.59375 1.1328125 C-4.95377351 -0.18717575 -2.95297683 0.00325218 0 0 Z " fill="#FED304" transform="translate(370.59375,247.8671875)"/>
<path d="M0 0 C0.804375 0.433125 0.804375 0.433125 1.625 0.875 C8.01531024 3.90198906 14.32568832 5.40391653 21.25 3.32421875 C23.17742069 2.57663462 25.08975693 1.79044541 27 1 C27.99 1 28.98 1 30 1 C33 4.33333333 33 4.33333333 33 7 C48.18 7 63.36 7 79 7 C79 31.65811631 77.1709543 49.82642172 59.8125 67.34375 C47.27710843 79.18273093 32.10487994 85 15 85 C15 61.24 15 37.48 15 13 C12.03 12.67 9.06 12.34 6 12 C2.93359375 10.80859375 2.93359375 10.80859375 0.4375 9.4375 C-0.40941406 8.98246094 -1.25632813 8.52742187 -2.12890625 8.05859375 C-2.74636719 7.70925781 -3.36382812 7.35992187 -4 7 C-2.79618552 4.50638429 -1.54571278 2.31856917 0 0 Z " fill="#567FAA" transform="translate(235,229)"/>
<path d="M0 0 C21.12 0 42.24 0 64 0 C64 21.45 64 42.9 64 65 C56.4925 65.12375 48.985 65.2475 41.25 65.375 C38.88489258 65.42962402 36.51978516 65.48424805 34.08300781 65.54052734 C32.20640099 65.55805245 30.32977138 65.57334143 28.453125 65.5859375 C27.48036621 65.6166333 26.50760742 65.6473291 25.50537109 65.67895508 C18.7633302 65.68419229 18.7633302 65.68419229 16.46520996 63.62432861 C15.34667969 61.96337891 15.34667969 61.96337891 14 59 C12.98679687 59.433125 12.98679687 59.433125 11.953125 59.875 C11.06109375 60.24625 10.1690625 60.6175 9.25 61 C8.36828125 61.37125 7.4865625 61.7425 6.578125 62.125 C4 63 4 63 0 63 C0 42.21 0 21.42 0 0 Z " fill="#A0C75B" transform="translate(250,171)"/>
<path d="M0 0 C6.68932017 -0.10181508 13.37843887 -0.17163915 20.06835938 -0.21972656 C22.34187284 -0.23978317 24.6153351 -0.26703538 26.88867188 -0.30175781 C30.16549349 -0.35053712 33.44163025 -0.37302897 36.71875 -0.390625 C38.23172668 -0.42159271 38.23172668 -0.42159271 39.77526855 -0.45318604 C46.44646425 -0.45528469 50.17154026 0.82607167 56 4 C60.455 4.99 60.455 4.99 65 6 C65 29.76 65 53.52 65 78 C46.88327242 78 32.38041919 72.37315735 19.55078125 59.61328125 C18.28814453 58.31970703 18.28814453 58.31970703 17 57 C16.39542969 56.41605469 15.79085937 55.83210938 15.16796875 55.23046875 C3.53341199 43.10474337 -0.18630023 25.7534805 -0.0546875 9.59765625 C-0.05073975 8.67279419 -0.04679199 7.74793213 -0.04272461 6.79504395 C-0.03248537 4.52997686 -0.01814006 2.26501527 0 0 Z " fill="#FED305" transform="translate(185,236)"/>
<path d="M0 0 C3.12138181 1.05538524 4.33905534 2.83664081 5.90625 5.64453125 C5.90625 6.96453125 5.90625 8.28453125 5.90625 9.64453125 C6.56625 9.31453125 7.22625 8.98453125 7.90625 8.64453125 C11.77839182 8.21429327 13.43121371 8.32784039 16.71875 10.51953125 C19.40237152 13.12647787 19.822293 14.02806921 20.328125 17.7421875 C19.75126885 23.07810688 17.41144158 25.94490986 14.15625 30.08203125 C13.61742187 30.81357422 13.07859375 31.54511719 12.5234375 32.29882812 C9.48639916 36.26549649 9.48639916 36.26549649 7.90625 37.64453125 C3.68205897 37.64453125 3.18718359 37.47489798 0.078125 35.046875 C-0.63988281 34.49193359 -1.35789062 33.93699219 -2.09765625 33.36523438 C-3.20947266 32.48254883 -3.20947266 32.48254883 -4.34375 31.58203125 C-5.06949219 31.02064453 -5.79523438 30.45925781 -6.54296875 29.88085938 C-11.55017093 25.97595571 -16.35703328 21.87213911 -21.09375 17.64453125 C-19.37261318 14.03533909 -17.25844631 11.18282325 -14.71875 8.08203125 C-13.94789062 7.13199219 -13.17703125 6.18195313 -12.3828125 5.203125 C-8.3615925 0.70841664 -6.27604376 -1.06552235 0 0 Z " fill="#F8F9FC" transform="translate(95.09375,110.35546875)"/>
<path d="M0 0 C4.79678945 2.39839473 7.63683712 5.18278335 10 10 C10.7929013 14.5065921 10.55409137 17.89181725 8.5 22 C5.09394091 26.08727091 1.59268277 30.07595328 -2 34 C-4 32.6875 -4 32.6875 -6 31 C-6 30.01 -6 29.02 -6 28 C-7.216875 27.67 -8.43375 27.34 -9.6875 27 C-14.00796182 25.36252959 -16.03668872 23.21757809 -18.2109375 19.1796875 C-19.54772629 15.48697391 -19.45366118 12.64142125 -18 9 C-13.55068523 2.09542312 -8.46218082 -1.30690051 0 0 Z " fill="#F6F8FB" transform="translate(383,93)"/>
<path d="M0 0 C6.60566397 5.85502033 7.94151644 13.09381448 9.75 21.4375 C7.77 21.7675 5.79 22.0975 3.75 22.4375 C3.75 21.4475 3.75 20.4575 3.75 19.4375 C3.09 19.4375 2.43 19.4375 1.75 19.4375 C1.481875 20.22125 1.21375 21.005 0.9375 21.8125 C-0.25 24.4375 -0.25 24.4375 -3.25 26.4375 C-8.23135074 27.10065196 -12.75108693 27.21818389 -17.25 24.875 C-20.58105349 20.81527856 -22.04878651 17.07595267 -22.6875 11.875 C-22.05191039 6.8810816 -19.93047675 3.9142826 -16.1875 0.625 C-10.93707521 -2.59300229 -5.39292602 -2.5927529 0 0 Z " fill="#F6F8FB" transform="translate(197.25,54.5625)"/>
<path d="M0 0 C3.46745578 1.5446522 5.47810504 2.89289373 7.80078125 5.94140625 C9.88519755 12.97631126 8.86114531 20.15894888 7.80078125 27.31640625 C5.82078125 27.31640625 3.84078125 27.31640625 1.80078125 27.31640625 C1.47078125 26.32640625 1.14078125 25.33640625 0.80078125 24.31640625 C0.28515625 24.81140625 -0.23046875 25.30640625 -0.76171875 25.81640625 C-4.15094968 27.90208682 -6.2745465 27.79007359 -10.19921875 27.31640625 C-14.01344109 25.26259422 -17.1993231 23.21093988 -19.19921875 19.31640625 C-20.30202259 14.84534883 -20.56661077 11.39817165 -19.07421875 7.00390625 C-14.27352379 0.12291015 -8.10624229 -2.51970231 0 0 Z " fill="#F6F8FB" transform="translate(268.19921875,44.68359375)"/>
<path d="M0 0 C5.2037329 3.41932898 9.19632682 8.12654374 13 13 C12.1875 14.9375 12.1875 14.9375 11 17 C10.01 17.33 9.02 17.66 8 18 C7.67 17.34 7.34 16.68 7 16 C6.4740625 17.85625 6.4740625 17.85625 5.9375 19.75 C4.42036455 23.76720374 2.75891209 25.54640249 -1.1015625 27.37890625 C-5.33647783 28.76440324 -8.67549534 28.61604868 -12.6875 26.75 C-16.16628243 24.11740789 -18.60026607 22.19920179 -20 18 C-20.53495732 13.3958591 -20.43364314 9.91932346 -18.4375 5.6875 C-13.15718367 -0.13438724 -7.7761866 -2.75713329 0 0 Z " fill="#F7F9FB" transform="translate(131,90)"/>
<path d="M0 0 C4.15127595 2.61710875 7.29899422 5.08448267 8.875 9.8125 C9.27241243 15.07821469 8.5417422 18.2568154 5.875 22.8125 C-0.60213607 19.34770846 -6.94142857 15.77931941 -13.125 11.8125 C-12.02713575 17.22037385 -12.02713575 17.22037385 -8.125 20.8125 C-6.3925 21.06 -6.3925 21.06 -4.625 21.3125 C-1.125 21.8125 -1.125 21.8125 1.875 23.8125 C1.545 24.8025 1.215 25.7925 0.875 26.8125 C-2.74430698 28.01893566 -5.31731005 28.13518559 -9.125 27.8125 C-13.98554819 25.23926861 -18.06560797 22.1844673 -19.765625 16.7734375 C-20.59417643 12.30846588 -20.30613845 9.38776238 -18 5.4375 C-13.23277861 -1.13707456 -7.7966064 -2.96271043 0 0 Z " fill="#F6F7FB" transform="translate(355.125,72.1875)"/>
<path d="M0 0 C1.71166097 0.06514973 3.42073889 0.20318076 5.125 0.375 C6.52105469 0.51035156 6.52105469 0.51035156 7.9453125 0.6484375 C10.03809022 0.88929427 12.12492194 1.18657242 14.203125 1.53125 C19.02945506 2.12709322 23.76753622 2.14540951 28.625 2.125 C29.553125 2.12886719 30.48125 2.13273437 31.4375 2.13671875 C32.33726562 2.13542969 33.23703125 2.13414062 34.1640625 2.1328125 C35.37763428 2.13112061 35.37763428 2.13112061 36.61572266 2.12939453 C39.16197359 1.99120971 41.50986761 1.53855539 44 1 C46.33177975 0.65596692 48.66487041 0.32050798 51 0 C53.4294516 3.6441774 53.16179575 5.71241272 53 10 C44.14173349 12.41589087 35.54567305 13.19652004 26.375 13.1875 C25.51269775 13.18669434 24.65039551 13.18588867 23.76196289 13.18505859 C3.998039 12.99869267 3.998039 12.99869267 -2 9 C-1.125 1.125 -1.125 1.125 0 0 Z " fill="#3A62AB" transform="translate(224,370)"/>
<path d="M0 0 C4.53153136 1.94208487 6.74432457 4.65573621 9 9 C9.61871554 13.40834824 9.52217356 15.23305758 7 18.9375 C6.34 19.618125 5.68 20.29875 5 21 C3.0625 20.1875 3.0625 20.1875 1 19 C0 16 0 16 1.0625 13.5 C1.371875 12.675 1.68125 11.85 2 11 C1.34 10.01 0.68 9.02 0 8 C-2.31 8.33 -4.62 8.66 -7 9 C-7.77514538 10.80392644 -7.77514538 10.80392644 -8 13 C-6.82134352 14.99996325 -6.82134352 14.99996325 -5.0625 16.75 C-4.49660156 17.36359375 -3.93070312 17.9771875 -3.34765625 18.609375 C-2.90292969 19.06828125 -2.45820313 19.5271875 -2 20 C-2.66 21.32 -3.32 22.64 -4 24 C-5.32 24 -6.64 24 -8 24 C-9.703125 22.25 -9.703125 22.25 -11.25 20 C-12.03117187 18.88625 -12.03117187 18.88625 -12.828125 17.75 C-13.40820312 16.88375 -13.40820312 16.88375 -14 16 C-18.42623956 17.34128472 -21.03168193 19.67789418 -24.25390625 22.85546875 C-26 24 -26 24 -28.08984375 23.92578125 C-30.54947795 22.7336886 -30.89744062 21.43162182 -32 19 C-5.90999101 -1.2088618 -5.90999101 -1.2088618 0 0 Z " fill="#F5F7FA" transform="translate(418,114)"/>
<path d="M0 0 C6.47971308 3.3558093 10.51221376 10.35921576 13 17 C12.65625 19.3359375 12.65625 19.3359375 12 21 C10.68 21.33 9.36 21.66 8 22 C7.41992188 21.00097656 6.83984375 20.00195312 6.2421875 18.97265625 C5.454154 17.66864844 4.66503415 16.36529669 3.875 15.0625 C3.49601562 14.40314453 3.11703125 13.74378906 2.7265625 13.06445312 C0.6434928 9.67946485 -0.26440343 8.24337582 -4.15234375 6.95703125 C-7.09325234 6.74407059 -7.09325234 6.74407059 -9.4375 8.625 C-11.25324646 10.8496186 -11.25324646 10.8496186 -10.796875 13.30078125 C-9.58635219 17.40113058 -7.30842992 20.75535446 -5.08203125 24.37890625 C-4 27 -4 27 -4.57421875 29.27734375 C-6.30261119 31.36562064 -7.41010656 31.46825619 -10 32 C-11.35129438 29.48743702 -12.68074204 26.96682058 -14 24.4375 C-14.57234375 23.38079102 -14.57234375 23.38079102 -15.15625 22.30273438 C-17.53412614 17.69559936 -18.58729055 14.3051913 -18 9 C-14.39642135 1.79284271 -8.12589714 -1.86185604 0 0 Z " fill="#F6F8FB" transform="translate(160,68)"/>
<path d="M0 0 C3.97674929 3.50889643 5.31979586 7.77044896 6.125 12.875 C6.1909735 14.97823534 6.21062245 17.08335724 6.1875 19.1875 C6.17847656 20.25613281 6.16945312 21.32476562 6.16015625 22.42578125 C6.14855469 23.23402344 6.13695312 24.04226562 6.125 24.875 C4.145 24.875 2.165 24.875 0.125 24.875 C0.01542969 23.83859375 -0.09414062 22.8021875 -0.20703125 21.734375 C-0.36653639 20.36450736 -0.52672884 18.99471963 -0.6875 17.625 C-0.75775391 16.94308594 -0.82800781 16.26117188 -0.90039062 15.55859375 C-1.38568269 11.55978713 -1.90982763 8.71093967 -4.875 5.875 C-7.875 5.29166667 -7.875 5.29166667 -10.875 5.875 C-12.63657809 7.07659433 -12.63657809 7.07659433 -13.875 8.875 C-14.19614859 10.90537975 -14.19614859 10.90537975 -13.94921875 13.10546875 C-13.89443359 13.90791016 -13.83964844 14.71035156 -13.78320312 15.53710938 C-13.71037109 16.37048828 -13.63753906 17.20386719 -13.5625 18.0625 C-13.50126953 18.90748047 -13.44003906 19.75246094 -13.37695312 20.62304688 C-13.22381209 22.70812095 -13.05125843 24.79175276 -12.875 26.875 C-15.185 27.205 -17.495 27.535 -19.875 27.875 C-22.10941397 9.48098504 -22.10941397 9.48098504 -19.1875 3.3125 C-14.09092945 -2.05956085 -6.77229126 -2.65002702 0 0 Z " fill="#F7F8FB" transform="translate(233.875,46.125)"/>
<path d="M0 0 C1.98 0.66 3.96 1.32 6 2 C5.34143875 8.12566497 3.07751787 13.64610934 0.9375 19.375 C0.56044922 20.39722656 0.18339844 21.41945313 -0.20507812 22.47265625 C-1.13200101 24.98356127 -2.06376447 27.49255574 -3 30 C-2.32018066 30.19698486 -1.64036133 30.39396973 -0.93994141 30.59692383 C0.40318115 30.9917395 0.40318115 30.9917395 1.7734375 31.39453125 C2.65950684 31.65339111 3.54557617 31.91225098 4.45849609 32.17895508 C7.48240042 33.15584175 10.22135759 34.46443446 13 36 C12.67 37.98 12.34 39.96 12 42 C6.2290545 40.3976833 0.56346525 38.55540232 -5.0625 36.5 C-6.16722656 36.0978125 -7.27195312 35.695625 -8.41015625 35.28125 C-9.26480469 34.8584375 -10.11945313 34.435625 -11 34 C-12.34176243 29.97471272 -11.24845479 28.36154814 -9.7265625 24.43359375 C-9.48336273 23.79889664 -9.24016296 23.16419952 -8.98959351 22.51026917 C-8.21008725 20.48253342 -7.41762633 18.46013829 -6.625 16.4375 C-6.09812586 15.07128429 -5.57207423 13.70475108 -5.046875 12.33789062 C-1.26340136 2.52680271 -1.26340136 2.52680271 0 0 Z " fill="#F6F8FB" transform="translate(314,45)"/>
<path d="M0 0 C0.804375 0.433125 0.804375 0.433125 1.625 0.875 C8.01531024 3.90198906 14.32568832 5.40391653 21.25 3.32421875 C23.17742069 2.57663462 25.08975693 1.79044541 27 1 C27.99 1 28.98 1 30 1 C33 4.33333333 33 4.33333333 33 7 C31.44148245 7.82011312 29.87798284 8.63076213 28.3125 9.4375 C27.00732422 10.11619141 27.00732422 10.11619141 25.67578125 10.80859375 C17.31110318 14.53301245 9.30106117 13.11289794 1 10 C-2.125 8.3125 -2.125 8.3125 -4 7 C-2.79618552 4.50638429 -1.54571278 2.31856917 0 0 Z " fill="#161713" transform="translate(235,229)"/>
<path d="M0 0 C2.5 1.5 2.5 1.5 4 3 C3.0925 3.391875 2.185 3.78375 1.25 4.1875 C-3.45773121 6.81296548 -5.75822688 9.68452992 -7.25 14.8125 C-7.4975 15.864375 -7.745 16.91625 -8 18 C-12.62 18 -17.24 18 -22 18 C-21.56416015 12.55200186 -20.48521211 9.23877149 -17 5 C-11.52179906 0.86339929 -6.90233517 -0.8332799 0 0 Z " fill="#FCFAFA" transform="translate(227,203)"/>
<path d="M0 0 C0.87785156 0.07863281 1.75570313 0.15726563 2.66015625 0.23828125 C4.9375 0.6875 4.9375 0.6875 6.9375 2.6875 C6.03 3.079375 5.1225 3.47125 4.1875 3.875 C-1.66536743 7.13909914 -3.71204274 11.69383398 -6.0625 17.6875 C-10.3525 17.6875 -14.6425 17.6875 -19.0625 17.6875 C-18.62666015 12.23950186 -17.54771211 8.92627149 -14.0625 4.6875 C-9.25876332 1.06018863 -5.99757421 -0.59180776 0 0 Z " fill="#FAFBF8" transform="translate(278.0625,203.3125)"/>
<path d="M0 0 C2.84419092 2.61173301 5.27064899 5.54129798 7 9 C7 10.98 7 12.96 7 15 C0.07 15 -6.86 15 -14 15 C-12.87237546 7.10662824 -12.87237546 7.10662824 -10.0625 4.125 C-9.53785156 3.55007812 -9.01320313 2.97515625 -8.47265625 2.3828125 C-5.76142977 -0.16300759 -3.63603088 -0.66109652 0 0 Z " fill="#111211" transform="translate(287,206)"/>
<path d="M0 0 C2.84419092 2.61173301 5.27064899 5.54129798 7 9 C7 10.98 7 12.96 7 15 C0.07 15 -6.86 15 -14 15 C-12.87237546 7.10662824 -12.87237546 7.10662824 -10.0625 4.125 C-9.53785156 3.55007812 -9.01320312 2.97515625 -8.47265625 2.3828125 C-5.76142977 -0.16300759 -3.63603088 -0.66109652 0 0 Z " fill="#111211" transform="translate(233,206)"/>
<path d="M0 0 C2.9375 2.0625 2.9375 2.0625 5 5 C5.71729245 10.02104714 4.96856976 12.91821657 2 17 C-3.47932789 15.45454854 -8.11429181 12.84456788 -13 10 C-10.94729285 2.47340712 -8.28523927 -1.30819567 0 0 Z " fill="#F5F7FA" transform="translate(430,326)"/>
<path d="M0 0 C3.39470755 1.15564512 4.87501175 2.06492057 6.9375 5 C7.5 7.9375 7.5 7.9375 6.9375 11 C4.30538535 14.66900829 2.84895674 15.84009531 -1.625 16.625 C-5.0625 16 -5.0625 16 -7.5625 13.9375 C-9.54706831 10.05105372 -9.34276854 8.14204528 -8.0625 4 C-5.37815162 0.93217328 -4.10337501 0 0 0 Z " fill="#3F67AD" transform="translate(380.0625,99)"/>
<path d="M0 0 C2.81972931 2.36493426 2.97850831 3.8280665 3.4375 7.5 C3 11 3 11 1.4375 13.4375 C-1.94217804 15.60396028 -4.05983987 15.56288002 -8 15 C-10.4375 13.5 -10.4375 13.5 -12 11 C-12.61014545 8.1910285 -12.65360928 5.80363979 -12 3 C-8.38525112 -1.49105164 -5.37641793 -1.59301272 0 0 Z " fill="#3E66AD" transform="translate(194,60)"/>
<path d="M0 0 C2.5625 2.0625 2.5625 2.0625 4 5 C3.94021398 8.46758942 3.60965977 10.88826749 1.9375 13.9375 C-1.27905997 15.70141999 -4.49385409 15.73924763 -8 15 C-10.5625 12.9375 -10.5625 12.9375 -12 10 C-11.94021398 6.53241058 -11.60965977 4.11173251 -9.9375 1.0625 C-6.72094003 -0.70141999 -3.50614591 -0.73924763 0 0 Z " fill="#3D66AD" transform="translate(129,96)"/>
<path d="M0 0 C4.99268902 1.47931526 4.99268902 1.47931526 6.375 4 C7.13412409 10.83211679 7.13412409 10.83211679 4.75 14.5 C1.61186002 16.48198314 0.02626535 16.67064058 -3.625 16 C-6.94774404 13.54405875 -8.40118008 12.0743356 -9.25 8 C-8.11814245 2.56708374 -5.59993233 0 0 0 Z " fill="#3D66AD" transform="translate(263.625,50)"/>
<path d="M0 0 C6.14919355 2.2983871 6.14919355 2.2983871 8 6 C7.875 9.125 7.875 9.125 7 12 C4 14 4 14 0 14 C0 15.98 0 17.96 0 20 C-0.99 19.67 -1.98 19.34 -3 19 C-3 16.69 -3 14.38 -3 12 C-5.62113708 12 -7.50935112 12.31292445 -10 13 C-8.48446596 9.52224821 -6.4226544 7.0442016 -3.875 4.25 C-3.15054688 3.45078125 -2.42609375 2.6515625 -1.6796875 1.828125 C-0.84824219 0.92320312 -0.84824219 0.92320312 0 0 Z " fill="#E8EDF5" transform="translate(124,390)"/>
<path d="M0 0 C1.71875 1.234375 1.71875 1.234375 3 3 C3.20344436 5.33961018 2.99953834 7.50577076 2.8125 9.84375 C2.8012626 12.11073057 2.8012626 12.11073057 4.5 13.78125 C4.995 14.1834375 5.49 14.585625 6 15 C2.66666667 14.33333333 -0.66666667 13.66666667 -4 13 C-4 14.65 -4 16.3 -4 18 C-4.99 18 -5.98 18 -7 18 C-7.50744423 16.10614563 -8.00564574 14.20981334 -8.5 12.3125 C-8.7784375 11.25675781 -9.056875 10.20101563 -9.34375 9.11328125 C-9.9391715 6.28857328 -10.12786492 3.87163292 -10 1 C-6.44646071 -0.1845131 -3.72986522 -0.26641894 0 0 Z " fill="#EFF2F8" transform="translate(302,431)"/>
<path d="M0 0 C0.66 0.33 1.32 0.66 2 1 C2 1.66 2 2.32 2 3 C4.31 2.34 6.62 1.68 9 1 C9 1.99 9 2.98 9 4 C7.02 4.66 5.04 5.32 3 6 C3 7.65 3 9.3 3 11 C4.32 11 5.64 11 7 11 C7 11.66 7 12.32 7 13 C1.72 12.67 -3.56 12.34 -9 12 C-9.36966825 3.49763033 -9.36966825 3.49763033 -7.6796875 1.22265625 C-5.14641965 -0.62132709 -3.04243481 -0.25893062 0 0 Z " fill="#E7ECF5" transform="translate(445,266)"/>
<path d="M0 0 C2.0625 1.0625 2.0625 1.0625 3 3 C2.875 6.5625 2.875 6.5625 2 10 C-1.22791555 12.1519437 -2.28400809 12.20086443 -6 12 C-6 13.65 -6 15.3 -6 17 C-6.66 17 -7.32 17 -8 17 C-9.19088986 11.61972975 -10.2919519 6.54708616 -10 1 C-6.80977406 -0.59511297 -3.47091604 -0.37542561 0 0 Z " fill="#F8F9FC" transform="translate(285,435)"/>
<path d="M0 0 C0.99 0 1.98 0 3 0 C3 3.3 3 6.6 3 10 C4.98 10 6.96 10 9 10 C9 7.69 9 5.38 9 3 C9.99 3 10.98 3 12 3 C12 5.31 12 7.62 12 10 C12.99 10 13.98 10 15 10 C15 7.03 15 4.06 15 1 C15.66 1 16.32 1 17 1 C17 4.96 17 8.92 17 13 C11.39 13 5.78 13 0 13 C0 8.71 0 4.42 0 0 Z " fill="#D7DFED" transform="translate(437,247)"/>
<path d="M0 0 C2.86314748 1.99175477 4.5961805 3.49402654 5.51953125 6.9375 C5.86768105 11.21245572 5.26766542 12.68010719 2.4375 16.0625 C-1 18 -1 18 -4.625 18.125 C-8.6568506 16.7810498 -9.94541925 15.69824535 -12 12 C-12.6602967 8.03821982 -12.36550574 6.54825861 -10.125 3.1875 C-6.84028418 -0.19382511 -4.67056491 -0.54947822 0 0 Z M-8.4375 4.6875 C-10.25051858 6.88897187 -10.25051858 6.88897187 -9.9375 9.5625 C-8.69216004 12.88077295 -8.69216004 12.88077295 -6 15 C-2.42243314 15.00082535 -2.42243314 15.00082535 1 14 C3.15502531 10.76746204 3.46856135 9.74849077 3 6 C1.98029682 4.06345052 1.98029682 4.06345052 0 3 C-3.68983715 2.45044979 -5.34610467 2.54730323 -8.4375 4.6875 Z " fill="#E2E8F2" transform="translate(202,430)"/>
<path d="M0 0 C-2.97 3.96 -2.97 3.96 -6 8 C-4.02 9.2065625 -4.02 9.2065625 -2 10.4375 C-0.64781004 11.26149076 0.69107565 12.10887963 2 13 C2 13.33 2 13.66 2 14 C-0.26999825 14.50377768 -2.54103003 15.00290019 -4.8125 15.5 C-6.07707031 15.7784375 -7.34164062 16.056875 -8.64453125 16.34375 C-12 17 -12 17 -15 17 C-15 16.01 -15 15.02 -15 14 C-10.545 13.01 -10.545 13.01 -6 12 C-7.65 10.68 -9.3 9.36 -11 8 C-9.68 6.35 -8.36 4.7 -7 3 C-10.3 3 -13.6 3 -17 3 C-17 2.34 -17 1.68 -17 1 C-11.33357449 -0.22517308 -5.76291482 -0.09228867 0 0 Z " fill="#F1F4F9" transform="translate(63,269)"/>
<path d="M0 0 C0.11269443 6.1105424 -0.10395632 11.95170514 -1 18 C-1.99 17.67 -2.98 17.34 -4 17 C-4.103125 16.360625 -4.20625 15.72125 -4.3125 15.0625 C-4.539375 14.381875 -4.76625 13.70125 -5 13 C-8.59650092 11.40155515 -11.03397243 11 -15 11 C-4.64705882 0 -4.64705882 0 0 0 Z " fill="#EEF1F7" transform="translate(161,415)"/>
<path d="M0 0 C0 0.99 0 1.98 0 3 C-1.32 3 -2.64 3 -4 3 C-4.33 5.97 -4.66 8.94 -5 12 C-4.34 12 -3.68 12 -3 12 C-3 12.99 -3 13.98 -3 15 C-7.10110762 13.59601721 -9.98089159 11.62912962 -13.3125 8.875 C-14.19550781 8.15054687 -15.07851563 7.42609375 -15.98828125 6.6796875 C-16.65214844 6.12539063 -17.31601562 5.57109375 -18 5 C-15.35869909 2.35869909 -13.19121892 2.17598812 -9.5625 1.375 C-8.40878906 1.11460937 -7.25507813 0.85421875 -6.06640625 0.5859375 C-3 0 -3 0 0 0 Z " fill="#EBEFF6" transform="translate(451,285)"/>
<path d="M0 0 C5.28 2.31 10.56 4.62 16 7 C16 7.66 16 8.32 16 9 C13.89983377 10.17441535 11.79541245 11.33964012 9.6875 12.5 C9.09259766 12.83386719 8.49769531 13.16773438 7.88476562 13.51171875 C5.04171156 15.06825114 3.29339012 16 0 16 C0.33 15.01 0.66 14.02 1 13 C1.66 13 2.32 13 3 13 C3 10.03 3 7.06 3 4 C2.01 3.67 1.02 3.34 0 3 C0 2.01 0 1.02 0 0 Z " fill="#B7C6E0" transform="translate(45,248)"/>
<path d="M0 0 C0.73605469 0.25652344 1.47210938 0.51304688 2.23046875 0.77734375 C2.9453125 2.9765625 2.9453125 2.9765625 3.23046875 5.77734375 C1.796875 8.234375 1.796875 8.234375 -0.20703125 10.58984375 C-1.19509766 11.77513672 -1.19509766 11.77513672 -2.203125 12.984375 C-2.97849609 13.87189453 -2.97849609 13.87189453 -3.76953125 14.77734375 C-7.03414098 12.97321732 -8.6588292 11.94339682 -10.76953125 8.77734375 C-9.56154448 7.23963354 -8.32730211 5.72251919 -7.08203125 4.21484375 C-6.39753906 3.36792969 -5.71304688 2.52101563 -5.0078125 1.6484375 C-2.76953125 -0.22265625 -2.76953125 -0.22265625 0 0 Z " fill="#4168AE" transform="translate(104.76953125,125.22265625)"/>
<path d="M0 0 C0.66 0 1.32 0 2 0 C3.0044134 2.2898234 4.00367612 4.5816599 5 6.875 C5.28617188 7.52597656 5.57234375 8.17695313 5.8671875 8.84765625 C8 13.7734375 8 13.7734375 8 16 C7.01 16 6.02 16 5 16 C4.67 15.34 4.34 14.68 4 14 C1.36 14 -1.28 14 -4 14 C-4.33 14.66 -4.66 15.32 -5 16 C-5.99 16 -6.98 16 -8 16 C-6.57250019 12.20950293 -4.83763458 8.72877544 -2.875 5.1875 C-2.33617187 4.21167969 -1.79734375 3.23585938 -1.2421875 2.23046875 C-0.83226562 1.49441406 -0.42234375 0.75835937 0 0 Z " fill="#ECEFF6" transform="translate(239,438)"/>
<path d="M0 0 C-0.33 4.29 -0.66 8.58 -1 13 C-0.071875 12.319375 0.85625 11.63875 1.8125 10.9375 C2.864375 10.298125 3.91625 9.65875 5 9 C5.99 9.33 6.98 9.66 8 10 C5.16667533 13.04516202 2.34499689 15.16868601 -1.25 17.25 C-2.14203125 17.77078125 -3.0340625 18.2915625 -3.953125 18.828125 C-4.96632813 19.40820312 -4.96632813 19.40820312 -6 20 C-5.47462276 14.9697924 -4.89405214 9.98114761 -4 5 C-4.47050781 5.37253906 -4.94101563 5.74507813 -5.42578125 6.12890625 C-6.04839844 6.60199219 -6.67101562 7.07507813 -7.3125 7.5625 C-7.92738281 8.03816406 -8.54226562 8.51382812 -9.17578125 9.00390625 C-9.77777344 9.33261719 -10.37976563 9.66132813 -11 10 C-11.99 9.67 -12.98 9.34 -14 9 C-10.73787201 5.33010602 -5.2007339 0 0 0 Z " fill="#E4E9F3" transform="translate(89,348)"/>
<path d="M0 0 C3.21043882 1.38188453 5.04936365 2.92421903 7.25 5.625 C7.77078125 6.25664062 8.2915625 6.88828125 8.828125 7.5390625 C9.40820312 8.26222656 9.40820312 8.26222656 10 9 C6 9 6 9 3.75 7 C3.1725 6.34 2.595 5.68 2 5 C0.02 5.99 0.02 5.99 -2 7 C-1.67 7.5775 -1.34 8.155 -1 8.75 C0 11 0 11 0 15 C-0.61875 14.34 -1.2375 13.68 -1.875 13 C-3.75637427 10.7715451 -3.75637427 10.7715451 -6 11 C-4.62845496 13.95409701 -3.01136276 16.44008376 -1 19 C-4 19 -4 19 -5.82421875 17.46875 C-6.43910156 16.8190625 -7.05398437 16.169375 -7.6875 15.5 C-8.31011719 14.8503125 -8.93273437 14.200625 -9.57421875 13.53125 C-10.27998047 12.77328125 -10.27998047 12.77328125 -11 12 C-7.49102731 7.81576108 -3.91939465 3.80411834 0 0 Z " fill="#E0E7F1" transform="translate(111,377)"/>
<path d="M0 0 C2.18994248 3.28491373 2.35277339 4.83095639 2.625 8.6875 C2.69976562 9.68136719 2.77453125 10.67523438 2.8515625 11.69921875 C2.90054688 12.45847656 2.94953125 13.21773438 3 14 C6.42578949 10.82460444 6.42578949 10.82460444 9 7 C9.99 7 10.98 7 12 7 C10.65378455 10.80863968 8.94641263 13.65409851 6.4375 16.8125 C5.50744141 17.99779297 5.50744141 17.99779297 4.55859375 19.20703125 C4.04425781 19.79871094 3.52992188 20.39039063 3 21 C2.67 21 2.34 21 2 21 C1.01 16.38 0.02 11.76 -1 7 C-2.98 9.64 -4.96 12.28 -7 15 C-7.66 14.34 -8.32 13.68 -9 13 C-6.03 8.71 -3.06 4.42 0 0 Z " fill="#EBEFF6" transform="translate(138,401)"/>
<path d="M0 0 C0.66 0.33 1.32 0.66 2 1 C2 1.66 2 2.32 2 3 C0.03852126 4.38938077 -1.96166576 5.7260411 -4 7 C-3.65213292 8.97536745 -3.65213292 8.97536745 -3 11 C-2.34 11.33 -1.68 11.66 -1 12 C-0.38125 11.505 0.2375 11.01 0.875 10.5 C3 9 3 9 5 9 C5 12 5 12 3 14.1875 C2.01 15.0846875 2.01 15.0846875 1 16 C4.0831351 14.80100302 7.06279492 13.52299523 10 12 C10 12.99 10 13.98 10 15 C8.03125 16.60546875 8.03125 16.60546875 5.5 18.1875 C4.6646875 18.71730469 3.829375 19.24710937 2.96875 19.79296875 C2.3190625 20.19128906 1.669375 20.58960938 1 21 C-0.48448016 19.23361856 -1.96241965 17.46173862 -3.4375 15.6875 C-4.26121094 14.70136719 -5.08492188 13.71523438 -5.93359375 12.69921875 C-8 10 -8 10 -9 7 C-6.03 4.69 -3.06 2.38 0 0 Z " fill="#EBEFF6" transform="translate(369,394)"/>
<path d="M0 0 C5.80205656 5.64524422 5.80205656 5.64524422 8 9 C8 9.66 8 10.32 8 11 C8.66 11 9.32 11 10 11 C10.33 7.7 10.66 4.4 11 1 C11.66 1 12.32 1 13 1 C12.88590318 3.10478604 12.75834639 5.20884577 12.625 7.3125 C12.55539063 8.48425781 12.48578125 9.65601563 12.4140625 10.86328125 C12 14 12 14 10 17 C7.36 13.37 4.72 9.74 2 6 C1.34 9.3 0.68 12.6 0 16 C-0.99 16 -1.98 16 -3 16 C-2.57910004 10.39538469 -2.08386889 5.27913453 0 0 Z " fill="#F0F3F8" transform="translate(214,435)"/>
<path d="M0 0 C4.38894929 3.26720791 8.75259665 6.54898478 13 10 C12.67 10.99 12.34 11.98 12 13 C9.525 11.515 9.525 11.515 7 10 C4.74409751 12.1099784 4.74409751 12.1099784 3 15 C3.62036318 18.28104472 3.62036318 18.28104472 5 21 C-0.40489519 19.47987323 -3.98492628 15.72614782 -8 12 C-7.67 11.01 -7.34 10.02 -7 9 C-4.69 10.65 -2.38 12.3 0 14 C1.32 12.35 2.64 10.7 4 9 C2.63016497 5.83884224 2.0109362 5.0072908 -1 3 C-0.67 2.01 -0.34 1.02 0 0 Z " fill="#EDF1F7" transform="translate(400,362)"/>
<path d="M0 0 C3.5 0.1875 3.5 0.1875 7 1 C9 4 9 4 8.6875 7.0625 C8 10 8 10 7 12 C3.2089881 10.55049545 -0.3874638 8.84827434 -4 7 C-2.92598892 4.08482708 -2.22189824 2.22189824 0 0 Z " fill="#456CB0" transform="translate(424,328)"/>
<path d="M0 0 C3.5874856 1.7937428 6.16756222 3.6103797 9.25 6.125 C10.14203125 6.84945313 11.0340625 7.57390625 11.953125 8.3203125 C12.62859375 8.87460937 13.3040625 9.42890625 14 10 C11 11 11 11 7.9375 11.5 C5.07680095 11.84043772 5.07680095 11.84043772 3 13 C2.27840576 14.64363134 1.60648579 16.31050386 1 18 C0.67 18 0.34 18 0 18 C0 12.06 0 6.12 0 0 Z " fill="#F4F6FA" transform="translate(337,417)"/>
<path d="M0 0 C2.86724686 0.57344937 3.8614515 0.8614515 6 3 C5.63951129 6.17230063 4.32634855 8.23153527 2.4375 10.75 C1.98246094 11.36359375 1.52742188 11.9771875 1.05859375 12.609375 C0.70925781 13.06828125 0.35992187 13.5271875 0 14 C-2.49361571 12.79618552 -4.68143083 11.54571278 -7 10 C-5.33248852 6.05860922 -2.77289351 3.2107188 0 0 Z " fill="#456CB0" transform="translate(90,117)"/>
<path d="M0 0 C0.66 0 1.32 0 2 0 C1.34 3.3 0.68 6.6 0 10 C1.32 10 2.64 10 4 10 C4.433125 8.329375 4.433125 8.329375 4.875 6.625 C6 3 6 3 8 1 C10.5 0.6875 10.5 0.6875 13 1 C15 4 15 4 14.6875 7.0625 C14 10 14 10 13 12 C12.34 12 11.68 12 11 12 C11 9.36 11 6.72 11 4 C10.34 4 9.68 4 9 4 C8.76925781 4.56589844 8.53851563 5.13179687 8.30078125 5.71484375 C7.31565123 7.93041285 6.33896798 9.97657555 5 12 C2.25 13 2.25 13 0 13 C-1.5625 11.4375 -1.5625 11.4375 -3 9 C-2.67272727 2.67272727 -2.67272727 2.67272727 0 0 Z " fill="#EDF0F7" transform="translate(48,232)"/>
<path d="M0 0 C0 0.66 0 1.32 0 2 C-3.96 3.32 -7.92 4.64 -12 6 C-12 7.98 -12 9.96 -12 12 C-7.20699867 13.39151652 -2.84864218 12.68662689 2 12 C2 12.66 2 13.32 2 14 C-2.95395131 15.98158052 -6.73850886 16.50917656 -12 16 C-14.5625 14.4375 -14.5625 14.4375 -16 12 C-15.94035447 8.60020453 -15.67101697 6.14467601 -13.9375 3.1875 C-9.66097238 0.56640243 -4.93618286 0 0 0 Z " fill="#EFF2F8" transform="translate(67,289)"/>
<path d="M0 0 C0.66 0.33 1.32 0.66 2 1 C2 1.66 2 2.32 2 3 C1.01 3.66 0.02 4.32 -1 5 C-1.5 8.5 -1.5 8.5 -1 12 C1.84826598 14.36692966 1.84826598 14.36692966 5.1875 13.625 C6.115625 13.41875 7.04375 13.2125 8 13 C8.72256829 8.51866426 8.72256829 8.51866426 9 4 C9.99 4 10.98 4 12 4 C12.77303488 12.03956273 12.77303488 12.03956273 9.9375 15.5625 C6.27235293 17.35608261 4.0338955 17.58674844 0 17 C-3.28573474 14.83833241 -3.90007665 13.36638562 -4.9375 9.5625 C-5.00698608 5.60179332 -4.43366566 4.06461602 -2 1 C-1.34 0.67 -0.68 0.34 0 0 Z " fill="#EDF0F7" transform="translate(433,300)"/>
<path d="M0 0 C0 0.66 0 1.32 0 2 C-1.2065625 2.309375 -1.2065625 2.309375 -2.4375 2.625 C-5.30547606 3.78124921 -5.30547606 3.78124921 -5.9375 6.9375 C-6.29544841 10.17601934 -6.29544841 10.17601934 -4 13 C-0.41642759 13.25015873 -0.41642759 13.25015873 3 13 C3.99 11.02 4.98 9.04 6 7 C6.66 7 7.32 7 8 7 C8.375 9.1875 8.375 9.1875 8 12 C4.9555284 15.26193386 3.29653646 16.73540072 -1.0625 17.625 C-5.16102524 16.75297335 -6.58610696 15.407849 -9 12 C-9.68778033 8.97974726 -9.45536926 7.1875848 -9 4 C-6.43823763 0.20479649 -4.49728961 -0.49969885 0 0 Z " fill="#F1F4F9" transform="translate(390,379)"/>
<path d="M0 0 C0.66 0 1.32 0 2 0 C2.09945415 6.11090483 2.0712828 11.97403427 1 18 C0.56429688 17.62488281 0.12859375 17.24976563 -0.3203125 16.86328125 C-0.91585938 16.35152344 -1.51140625 15.83976562 -2.125 15.3125 C-2.75792969 14.76722656 -3.39085937 14.22195313 -4.04296875 13.66015625 C-5.81640213 12.1557467 -7.62132079 10.70207646 -9.4375 9.25 C-10.283125 8.5075 -11.12875 7.765 -12 7 C-12 6.34 -12 5.68 -12 5 C-8.64749299 5.57575664 -7.06181371 6.59306263 -4.75 9.0625 C-3.96882813 9.88427734 -3.96882813 9.88427734 -3.171875 10.72265625 C-2.78515625 11.14417969 -2.3984375 11.56570313 -2 12 C-1.93941406 11.21753906 -1.87882812 10.43507813 -1.81640625 9.62890625 C-1.73261719 8.61699219 -1.64882813 7.60507812 -1.5625 6.5625 C-1.48128906 5.55316406 -1.40007812 4.54382813 -1.31640625 3.50390625 C-1 1 -1 1 0 0 Z " fill="#E8EDF5" transform="translate(328,420)"/>
<path d="M0 0 C0.99 0 1.98 0 3 0 C3 4.62 3 9.24 3 14 C5.97 14 8.94 14 12 14 C12 14.99 12 15.98 12 17 C8.04 17 4.08 17 0 17 C0 11.39 0 5.78 0 0 Z " fill="#E0E6F1" transform="translate(252,437)"/>
<path d="M0 0 C2.9008605 0.35298081 3.89516676 0.88728296 5.921875 3.06640625 C6.52515625 3.89011719 7.1284375 4.71382813 7.75 5.5625 C8.36359375 6.38878906 8.9771875 7.21507812 9.609375 8.06640625 C10.06828125 8.70449219 10.5271875 9.34257812 11 10 C10.67 10.66 10.34 11.32 10 12 C9.34 12 8.68 12 8 12 C7.34 11.01 6.68 10.02 6 9 C2.72474189 10.05964233 0.38618531 11.39278645 -2.1875 13.625 C-5 16 -5 16 -7 16 C-5.61811547 12.78956118 -4.07578097 10.95063635 -1.375 8.75 C-0.74335937 8.22921875 -0.11171875 7.7084375 0.5390625 7.171875 C1.26222656 6.59179688 1.26222656 6.59179688 2 6 C1.34 4.02 0.68 2.04 0 0 Z " fill="#E9EDF5" transform="translate(98,363)"/>
<path d="M0 0 C1.41791408 0.45445964 2.83428046 0.91374944 4.25 1.375 C5.43335938 1.75785156 5.43335938 1.75785156 6.640625 2.1484375 C8.86627958 2.95173667 10.90931672 3.89711662 13 5 C13 5.66 13 6.32 13 7 C10.03 6.505 10.03 6.505 7 6 C5.35 9.96 3.7 13.92 2 18 C1.01 18 0.02 18 -1 18 C-0.79503906 17.40832031 -0.59007812 16.81664062 -0.37890625 16.20703125 C0.9997571 12.16339184 2.31750847 8.23144751 3 4 C1.68 3.01 0.36 2.02 -1 1 C-0.67 0.67 -0.34 0.34 0 0 Z " fill="#ECF0F6" transform="translate(168,419)"/>
<path d="M0 0 C-1 3 -1 3 -3 4 C-1.31326082 8.49797113 0.81673892 12.72886302 3 17 C2.01 17 1.02 17 0 17 C-1.60546875 15.1015625 -1.60546875 15.1015625 -3.1875 12.625 C-3.71730469 11.81289063 -4.24710937 11.00078125 -4.79296875 10.1640625 C-6 8 -6 8 -6 6 C-7.98 6.99 -9.96 7.98 -12 9 C-12 8.01 -12 7.02 -12 6 C-10.13671875 4.39453125 -10.13671875 4.39453125 -7.6875 2.8125 C-6.88699219 2.28269531 -6.08648437 1.75289063 -5.26171875 1.20703125 C-3 0 -3 0 0 0 Z " fill="#EDF1F7" transform="translate(357,405)"/>
<path d="M0 0 C2.92164279 0.46746285 5.05877039 1.56132314 7.5625 3.0625 C10.77792218 5.24550653 10.77792218 5.24550653 14 5 C15.71711243 2.55503957 15.71711243 2.55503957 17 0 C17.99 0.33 18.98 0.66 20 1 C17.03 5.455 17.03 5.455 14 10 C3.0786445 4.6830243 3.0786445 4.6830243 0 2 C0 1.34 0 0.68 0 0 Z " fill="#EAEEF6" transform="translate(409,348)"/>
<path d="M0 0 C4.17188107 0.24068545 6.3505558 0.38386063 9.4375 3.3125 C11 6 11 6 11 10 C6.22390502 8.35821735 2.20617096 5.73453298 -2 3 C-1.34 2.01 -0.68 1.02 0 0 Z " fill="#4E73B4" transform="translate(347,77)"/>
<path d="M0 0 C0.66 0 1.32 0 2 0 C2.11269443 6.1105424 1.89604368 11.95170514 1 18 C0.01 17.67 -0.98 17.34 -2 17 C-2.5625 15.0625 -2.5625 15.0625 -3 13 C-3.66 12.34 -4.32 11.68 -5 11 C-4.625 8.375 -4.625 8.375 -4 6 C-3.01 5.67 -2.02 5.34 -1 5 C-0.67 5.99 -0.34 6.98 0 8 C0 5.36 0 2.72 0 0 Z " fill="#B5C5DF" transform="translate(159,415)"/>
<path d="M0 0 C0 0.99 0 1.98 0 3 C-1.32 3 -2.64 3 -4 3 C-4 4.32 -4 5.64 -4 7 C-5.65 7.66 -7.3 8.32 -9 9 C-9.99 7.68 -10.98 6.36 -12 5 C-11.34 5 -10.68 5 -10 5 C-10 4.34 -10 3.68 -10 3 C-10.66 2.67 -11.32 2.34 -12 2 C-10.56342755 1.66269158 -9.12569907 1.33030409 -7.6875 1 C-6.88699219 0.814375 -6.08648437 0.62875 -5.26171875 0.4375 C-3 0 -3 0 0 0 Z " fill="#B8C7E1" transform="translate(451,285)"/>
<path d="M0 0 C5.28 2.31 10.56 4.62 16 7 C16 7.66 16 8.32 16 9 C13.6875 9.6875 13.6875 9.6875 11 10 C9.375 8.625 9.375 8.625 8 7 C7.01 6.67 6.02 6.34 5 6 C5 7.65 5 9.3 5 11 C4.67 11 4.34 11 4 11 C4 8.69 4 6.38 4 4 C2.68 3.67 1.36 3.34 0 3 C0 2.01 0 1.02 0 0 Z " fill="#F2F4F9" transform="translate(45,248)"/>
<path d="M0 0 C3 0.125 3 0.125 4 1.125 C4.04063832 2.79117115 4.042721 4.45888095 4 6.125 C1.69 6.785 -0.62 7.445 -3 8.125 C-3.38063221 5.7989143 -3.71269945 3.46444736 -4 1.125 C-3 0.125 -3 0.125 0 0 Z " fill="#476DB1" transform="translate(281,436.875)"/>
<path d="M0 0 C1.65 0.33 3.3 0.66 5 1 C5.93423645 4.01031744 6.04449911 4.86650268 5 8 C3.02 8 1.04 8 -1 8 C-1.93065133 5.39417629 -2.14917407 4.35801776 -1.0625 1.75 C-0.711875 1.1725 -0.36125 0.595 0 0 Z " fill="#4B70B2" transform="translate(440,268)"/>
<path d="M0 0 C1.32 1.32 2.64 2.64 4 4 C3.34 4.66 2.68 5.32 2 6 C1.32059533 8.42715206 1.32059533 8.42715206 0.875 11.125 C0.70742187 12.03507812 0.53984375 12.94515625 0.3671875 13.8828125 C0.24601563 14.58148438 0.12484375 15.28015625 0 16 C-0.99 16 -1.98 16 -3 16 C-2.57910004 10.39538469 -2.08386889 5.27913453 0 0 Z " fill="#E8ECF5" transform="translate(214,435)"/>
<path d="M0 0 C2.31 0 4.62 0 7 0 C7.33 1.65 7.66 3.3 8 5 C5.35261084 6.4606285 4.10551666 7 1 7 C0.67 4.69 0.34 2.38 0 0 Z " fill="#436AAF" transform="translate(295,434)"/>
<path d="M0 0 C2.91517292 1.07401108 4.77810176 1.77810176 7 4 C7.125 6.625 7.125 6.625 7 9 C6.21625 8.175 5.4325 7.35 4.625 6.5 C2.36278736 3.77011494 2.36278736 3.77011494 0 4 C-1.38232443 5.62626404 -2.71937515 7.2925002 -4 9 C-4.66 8.67 -5.32 8.34 -6 8 C-4.55746343 4.63408134 -2.66735273 2.48952921 0 0 Z " fill="#EEF1F7" transform="translate(124,390)"/>
<path d="M0 0 C0.66 0.33 1.32 0.66 2 1 C1.1875 3.9375 1.1875 3.9375 0 7 C-3 8 -3 8 -5.48046875 7.00390625 C-6.37378906 6.52824219 -7.26710938 6.05257813 -8.1875 5.5625 C-9.08855469 5.08941406 -9.98960937 4.61632812 -10.91796875 4.12890625 C-11.60503906 3.75636719 -12.29210937 3.38382812 -13 3 C-12.67 2.34 -12.34 1.68 -12 1 C-8.04179141 1.56545837 -5.3340947 2.80902348 -2 5 C-1.34 3.35 -0.68 1.7 0 0 Z " fill="#E7ECF4" transform="translate(433,335)"/>
<path d="M0 0 C1.9375 0.6875 1.9375 0.6875 4 2 C4.8125 4.5625 4.8125 4.5625 5 7 C4 8 4 8 1.4375 8.0625 C0.633125 8.041875 -0.17125 8.02125 -1 8 C-1.66 6.68 -2.32 5.36 -3 4 C-2.01 2.68 -1.02 1.36 0 0 Z " fill="#3F67AD" transform="translate(124,393)"/>
<path d="M0 0 C0.2475 0.639375 0.495 1.27875 0.75 1.9375 C1.1625 2.618125 1.575 3.29875 2 4 C2.66 4.12375 3.32 4.2475 4 4.375 C4.66 4.58125 5.32 4.7875 6 5 C7.25 8.0625 7.25 8.0625 8 11 C7.01 11 6.02 11 5 11 C4.67 10.34 4.34 9.68 4 9 C2.10466658 8.53476937 2.10466658 8.53476937 -0.0625 8.375 C-1.361875 8.25125 -2.66125 8.1275 -4 8 C-4 7.67 -4 7.34 -4 7 C-2.35 6.67 -0.7 6.34 1 6 C0.01 5.67 -0.98 5.34 -2 5 C-1.34 3.35 -0.68 1.7 0 0 Z " fill="#B0C0DD" transform="translate(239,443)"/>
<path d="M0 0 C0.99 0 1.98 0 3 0 C3.29354833 3.05290263 3.41409388 5.95457539 3 9 C0.875 11.5625 0.875 11.5625 -2 13 C-5.3125 13.25 -5.3125 13.25 -8 13 C-8 12.34 -8 11.68 -8 11 C-5.69 10.34 -3.38 9.68 -1 9 C-0.27743171 4.51866426 -0.27743171 4.51866426 0 0 Z " fill="#F2F5F9" transform="translate(442,304)"/>
<path d="M0 0 C0.66 0 1.32 0 2 0 C1.34309381 3.78239671 0.279869 7.21841526 -1.0625 10.8125 C-1.42472656 11.78832031 -1.78695312 12.76414062 -2.16015625 13.76953125 C-2.43730469 14.50558594 -2.71445313 15.24164063 -3 16 C-3.99 16 -4.98 16 -6 16 C-4.25192871 10.53262809 -2.34205919 5.24175152 0 0 Z " fill="#E9EDF5" transform="translate(186,426)"/>
<path d="M0 0 C0 0.66 0 1.32 0 2 C-2.51953125 3.7265625 -2.51953125 3.7265625 -5.8125 5.625 C-6.89144531 6.25664062 -7.97039062 6.88828125 -9.08203125 7.5390625 C-12 9 -12 9 -15 9 C-13.69331354 5.07994061 -12.21332305 4.71967958 -8.625 2.8125 C-7.15933594 2.01779297 -7.15933594 2.01779297 -5.6640625 1.20703125 C-3 0 -3 0 0 0 Z " fill="#E9EEF5" transform="translate(86,340)"/>
<path d="M0 0 C0.99 0 1.98 0 3 0 C3.70005949 2.07914664 4.38462244 4.16351586 5.0625 6.25 C5.44535156 7.41015625 5.82820313 8.5703125 6.22265625 9.765625 C6.95211763 12.80077085 7.11889082 14.15703213 6 17 C3.51340379 14.51340379 2.9656889 12.39516054 1.875 9.0625 C1.52179688 8.00160156 1.16859375 6.94070313 0.8046875 5.84765625 C0 3 0 3 0 0 Z " fill="#EBEFF6" transform="translate(309,427)"/>
<path d="M0 0 C1.77388086 1.09926403 3.54399684 2.20460502 5.3125 3.3125 C6.29863281 3.92738281 7.28476562 4.54226563 8.30078125 5.17578125 C10.50172035 6.66324661 12.23328988 8.0403386 14 10 C9.37410361 10 8.02514149 9.016761 4.25 6.5 C2.77273438 5.52546875 2.77273438 5.52546875 1.265625 4.53125 C0.51796875 4.0259375 -0.2296875 3.520625 -1 3 C-0.67 2.01 -0.34 1.02 0 0 Z " fill="#ECF0F7" transform="translate(405,355)"/>
<path d="M0 0 C0 0.66 0 1.32 0 2 C-2.29032311 2.83719383 -4.58210957 3.6698929 -6.875 4.5 C-7.85146484 4.85771484 -7.85146484 4.85771484 -8.84765625 5.22265625 C-13.7734375 7 -13.7734375 7 -16 7 C-16 6.01 -16 5.02 -16 4 C-14.08594633 3.32586789 -12.16863974 2.6609668 -10.25 2 C-9.18265625 1.62875 -8.1153125 1.2575 -7.015625 0.875 C-4 0 -4 0 0 0 Z " fill="#EAEEF5" transform="translate(72,309)"/>
<path d="M0 0 C-0.33 0.99 -0.66 1.98 -1 3 C-2.98 3 -4.96 3 -7 3 C-6.67 4.98 -6.34 6.96 -6 9 C-6.99 9 -7.98 9 -9 9 C-9.33 6.36 -9.66 3.72 -10 1 C-6.52674819 -0.1577506 -3.63932552 -0.06866652 0 0 Z " fill="#DFE5F1" transform="translate(302,431)"/>
<path d="M0 0 C0 0.66 0 1.32 0 2 C-1.65 2.33 -3.3 2.66 -5 3 C-6.01540112 7.10223585 -6.01540112 7.10223585 -5 11 C-6.32 11 -7.64 11 -9 11 C-9.36180905 3.64321608 -9.36180905 3.64321608 -7.875 1 C-5.21065116 -0.42098605 -2.96508915 -0.19767261 0 0 Z " fill="#F3F6FA" transform="translate(445,266)"/>
<path d="M0 0 C0.99 0 1.98 0 3 0 C3 0.66 3 1.32 3 2 C5.97 2 8.94 2 12 2 C12 2.99 12 3.98 12 5 C5.75917768 6.46842878 5.75917768 6.46842878 2.0625 4.1875 C0 2 0 2 0 0 Z " fill="#E2E8F2" transform="translate(191,442)"/>
<path d="M0 0 C3 1 3 1 4 3 C4.46829268 10.37560976 4.46829268 10.37560976 2.5 13 C2.005 13.33 1.51 13.66 1 14 C0.34 13.67 -0.32 13.34 -1 13 C-0.67 12.443125 -0.34 11.88625 0 11.3125 C1.68586362 7.41394039 1.18313217 3.99307108 0 0 Z " fill="#F3F5F9" transform="translate(203,432)"/>
<path d="M0 0 C0.66 0 1.32 0 2 0 C2 3.63 2 7.26 2 11 C-0.64 11 -3.28 11 -6 11 C-5.67 10.34 -5.34 9.68 -5 9 C-3.35 9 -1.7 9 0 9 C0 6.03 0 3.06 0 0 Z " fill="#F9FAFC" transform="translate(452,248)"/>
<path d="M0 0 C0.66 0 1.32 0 2 0 C2 3.63 2 7.26 2 11 C1.01 11 0.02 11 -1 11 C-1.02688151 9.35425434 -1.04634123 7.70838587 -1.0625 6.0625 C-1.07410156 5.14597656 -1.08570313 4.22945313 -1.09765625 3.28515625 C-1 1 -1 1 0 0 Z " fill="#DEE5F0" transform="translate(328,420)"/>
<path d="M0 0 C4.2742558 1.5830577 6.26531794 4.50568404 9 8 C5 8 5 8 2.75 6.125 C1 4 1 4 1 2 C0.34 1.67 -0.32 1.34 -1 1 C-0.67 0.67 -0.34 0.34 0 0 Z " fill="#E3E9F3" transform="translate(112,378)"/>
<path d="M0 0 C-1.17578125 2.015625 -1.17578125 2.015625 -3 4 C-5.48046875 4.171875 -5.48046875 4.171875 -8.1875 3.75 C-9.08855469 3.62109375 -9.98960938 3.4921875 -10.91796875 3.359375 C-11.94857422 3.18148438 -11.94857422 3.18148438 -13 3 C-13 2.34 -13 1.68 -13 1 C-8.60563789 0.14256349 -4.47427924 -0.08948558 0 0 Z " fill="#EAEEF6" transform="translate(59,269)"/>
<path d="M0 0 C0.66 0 1.32 0 2 0 C2.35882213 3.22939919 2.27258004 4.61209763 0.375 7.3125 C-2.60457419 9.42956587 -4.42236811 9.32523926 -8 9 C-7.01 8.34 -6.02 7.68 -5 7 C-2.39348783 4.62347419 -1.12962259 3.38886778 0 0 Z " fill="#F4F6FA" transform="translate(396,386)"/>
<path d="M0 0 C0.391875 0.474375 0.78375 0.94875 1.1875 1.4375 C3.40808374 3.35179633 5.13375709 3.61266988 8 4 C8.33 4.99 8.66 5.98 9 7 C3.58461538 7.36923077 3.58461538 7.36923077 0.625 5.5 C0.08875 5.005 -0.4475 4.51 -1 4 C-0.67 2.68 -0.34 1.36 0 0 Z " fill="#E1E7F2" transform="translate(383,389)"/>
<path d="M0 0 C0.99 0.33 1.98 0.66 3 1 C0.0094833 4.33557632 -2.93184627 6.15083921 -7 8 C-6.875 6.25 -6.875 6.25 -6 4 C-3.125 1.6875 -3.125 1.6875 0 0 Z " fill="#ECF0F6" transform="translate(94,357)"/>
<path d="M0 0 C0.33 0 0.66 0 1 0 C0.67 2.31 0.34 4.62 0 7 C-1.65 7.66 -3.3 8.32 -5 9 C-5.66 8.01 -6.32 7.02 -7 6 C-6.360625 5.896875 -5.72125 5.79375 -5.0625 5.6875 C-4.381875 5.460625 -3.70125 5.23375 -3 5 C-2.67 4.01 -2.34 3.02 -2 2 C-1.34 2 -0.68 2 0 2 C0 1.34 0 0.68 0 0 Z " fill="#DBE2EF" transform="translate(287,438)"/>
<path d="M0 0 C0.66 0.33 1.32 0.66 2 1 C2 1.66 2 2.32 2 3 C1.01 3.66 0.02 4.32 -1 5 C-1.72965366 7.56282742 -1.72965366 7.56282742 -2 10 C-2.99 9.34 -3.98 8.68 -5 8 C-3.375 2.25 -3.375 2.25 0 0 Z " fill="#DBE2EF" transform="translate(433,300)"/>
<path d="M0 0 C0.33 0 0.66 0 1 0 C1 2.64 1 5.28 1 8 C-0.98 6.35 -2.96 4.7 -5 3 C-4.34 2.34 -3.68 1.68 -3 1 C-2.34 1 -1.68 1 -1 1 C-0.67 0.67 -0.34 0.34 0 0 Z " fill="#F8FAFC" transform="translate(328,430)"/>
<path d="M0 0 C2.38672669 2.96283313 4.7353371 5.94270509 7 9 C4 9 4 9 1.25 6.75 C-1 4 -1 4 -0.8125 1.6875 C-0.4103125 0.8521875 -0.4103125 0.8521875 0 0 Z " fill="#F9FAFC" transform="translate(103,387)"/>
<path d="M0 0 C-0.33 0.66 -0.66 1.32 -1 2 C-3.64860427 2.59355614 -6.29197322 2.74209269 -9 3 C-9 2.01 -9 1.02 -9 0 C-5.62182575 -0.84454356 -3.32534757 -1.10844919 0 0 Z " fill="#E5EAF4" transform="translate(57,283)"/>
<path d="M0 0 C2.97 0 5.94 0 9 0 C9 0.99 9 1.98 9 3 C7.02 3 5.04 3 3 3 C3 2.34 3 1.68 3 1 C2.01 0.67 1.02 0.34 0 0 Z " fill="#D1DBEB" transform="translate(255,451)"/>
<path d="M0 0 C0.66 0 1.32 0 2 0 C1.67 2.97 1.34 5.94 1 9 C0.01 9 -0.98 9 -2 9 C-2.25 3.375 -2.25 3.375 0 0 Z " fill="#F8F9FB" transform="translate(192,433)"/>
<path d="M0 0 C0.75 1.75 0.75 1.75 1 4 C-0.9375 6.25 -0.9375 6.25 -3 8 C-3.33 7.34 -3.66 6.68 -4 6 C-4.66 5.67 -5.32 5.34 -6 5 C-5.01 4.67 -4.02 4.34 -3 4 C-2.34 3.01 -1.68 2.02 -1 1 C-0.67 0.67 -0.34 0.34 0 0 Z " fill="#DBE2EF" transform="translate(131,396)"/>
<path d="M0 0 C0 0.66 0 1.32 0 2 C-2.31 2.66 -4.62 3.32 -7 4 C-7 3.34 -7 2.68 -7 2 C-7.66 1.67 -8.32 1.34 -9 1 C-5.92677456 0.08941469 -3.19902639 -0.08886184 0 0 Z " fill="#E1E7F2" transform="translate(69,301)"/>
<path d="M0 0 C1.98 1.65 3.96 3.3 6 5 C5.67 5.99 5.34 6.98 5 8 C2.5 5.6875 2.5 5.6875 0 3 C0 2.01 0 1.02 0 0 Z " fill="#F4F6FA" transform="translate(106,384)"/>
<path d="M0 0 C4.875 2.625 4.875 2.625 6 6 C3.13275314 5.42655063 2.1385485 5.1385485 0 3 C0 2.01 0 1.02 0 0 Z " fill="#E5EAF4" transform="translate(392,371)"/>
<path d="M0 0 C0.99 0 1.98 0 3 0 C2.25 2.4375 2.25 2.4375 1 5 C-1.125 5.8125 -1.125 5.8125 -3 6 C-2 4 -1 2 0 0 Z " fill="#E6EBF4" transform="translate(147,408)"/>
<path d="M0 0 C0 0.66 0 1.32 0 2 C-2.31 2.66 -4.62 3.32 -7 4 C-7.33 3.01 -7.66 2.02 -8 1 C-5.10765685 0.17361624 -3.11257569 0 0 0 Z " fill="#E4EAF3" transform="translate(67,289)"/>
<path d="M0 0 C1.65 1.32 3.3 2.64 5 4 C3.35 4.66 1.7 5.32 0 6 C0 4.02 0 2.04 0 0 Z " fill="#5679B7" transform="translate(339,421)"/>
<path d="M0 0 C0.66 0 1.32 0 2 0 C1.67 2.64 1.34 5.28 1 8 C0.01 6.68 -0.98 5.36 -2 4 C-1.34 2.68 -0.68 1.36 0 0 Z " fill="#F4F6FA" transform="translate(87,348)"/>
<path d="" fill="#007F7F" transform="translate(0,0)"/>
<path d="" fill="#008080" transform="translate(0,0)"/>
<path d="" fill="#008080" transform="translate(0,0)"/>
<path d="" fill="#007F7F" transform="translate(0,0)"/>
<path d="" fill="#0000FF" transform="translate(0,0)"/>
<path d="" fill="#7F7F00" transform="translate(0,0)"/>
<path d="" fill="#0000FF" transform="translate(0,0)"/>
<path d="" fill="#008080" transform="translate(0,0)"/>
</svg>
